<svg xmlns="http://www.w3.org/2000/svg" width="1686" height="1704" viewBox="0 0 1686 1704" version="1.1"><path d="M 836.911 141.875 C 834.387 142.769, 831.140 144.287, 829.696 145.250 C 828.252 146.213, 826.646 147, 826.128 147 C 824.140 147, 815.547 157.793, 812.593 164 L 809.500 170.500 809.238 839 C 808.999 1451.174, 809.113 1508.045, 810.589 1513.967 C 813.263 1524.689, 821.930 1535.304, 832.500 1540.803 C 837.093 1543.193, 838.517 1543.407, 850 1543.435 C 861.777 1543.464, 862.843 1543.299, 868.421 1540.579 C 876.398 1536.691, 884.229 1528.415, 888.824 1519.018 L 892.500 1511.500 892.500 841.500 L 892.500 171.500 888.606 163.816 C 883.370 153.485, 874.869 145.973, 863.863 141.950 C 857.196 139.513, 843.687 139.475, 836.911 141.875 M 839 143 C 838.175 143.533, 836.263 143.976, 834.750 143.985 C 833.237 143.993, 832 144.348, 832 144.773 C 832 145.198, 830.439 146.386, 828.530 147.414 C 820.749 151.604, 814.168 161.364, 811.443 172.754 C 810.284 177.599, 810.065 282.460, 810.050 841.274 C 810.037 1314.013, 810.343 1505.499, 811.116 1509.107 C 811.713 1511.889, 812.312 1514.691, 812.447 1515.333 C 812.582 1515.975, 813.212 1517.767, 813.846 1519.315 C 814.481 1520.863, 815 1522.345, 815 1522.607 C 815 1523.492, 817.471 1526.347, 823.155 1532.031 C 831.423 1540.298, 837.325 1542.288, 852.160 1541.814 C 861.697 1541.508, 864.292 1541.062, 868.479 1539.007 C 877.584 1534.540, 889 1520.994, 889 1514.658 C 889 1513.811, 889.450 1512.840, 890 1512.500 C 891.388 1511.642, 891.388 172.358, 890 171.500 C 889.450 171.160, 889 169.858, 889 168.607 C 889 167.355, 887.170 163.669, 884.934 160.416 C 875.722 147.012, 866.254 141.990, 850.239 142.015 C 844.883 142.024, 839.825 142.467, 839 143 M 700.452 222.385 C 697.125 223.590, 692.985 225.586, 691.252 226.821 C 683.173 232.573, 676.441 243.898, 674.943 254.257 C 674.414 257.914, 674.032 502.089, 674.020 843.729 L 674 1426.958 676.604 1434.729 C 679.799 1444.261, 684.436 1450.770, 691.780 1456.029 C 699.107 1461.276, 705.250 1463, 716.616 1463 C 728.701 1463, 735.851 1460.127, 744.617 1451.750 C 750.811 1445.832, 753.738 1441.183, 756.437 1432.976 C 757.747 1428.995, 757.945 1358.102, 758.091 840.976 C 758.241 307.494, 758.111 253.047, 756.673 248.574 C 753.673 239.240, 743.747 227.774, 735.500 224.116 C 725.072 219.492, 710.434 218.769, 700.452 222.385 M 704 222.683 C 689.500 227.530, 681.224 236.080, 677.075 250.500 C 675.734 255.162, 676.023 1427.354, 677.367 1432.500 C 678.242 1435.850, 679.778 1439.735, 681.122 1442 C 681.612 1442.825, 682.326 1444.175, 682.709 1444.999 C 685.196 1450.354, 698.562 1460, 703.495 1460 C 704.808 1460, 706.160 1460.450, 706.500 1461 C 707.331 1462.345, 721.460 1462.276, 725.929 1460.905 C 740.996 1456.285, 751.237 1446.430, 755.235 1432.706 C 756.770 1427.434, 757.623 255.759, 756.094 252.500 C 755.578 251.400, 754.885 249.255, 754.554 247.733 C 753.110 241.084, 744.135 230.289, 736.477 225.987 C 728.980 221.776, 711.908 220.040, 704 222.683 M 946.250 226.989 L 943 228.971 943.022 274.235 C 943.047 324.841, 942.464 320.756, 950.499 326.594 C 952.699 328.192, 954.949 329.840, 955.499 330.256 C 956.050 330.671, 960.100 333.721, 964.500 337.033 C 976.535 346.092, 978.801 347.919, 986.979 355.151 C 1009.009 374.633, 1024.549 392.364, 1042.537 418.545 C 1052.868 433.580, 1053.779 434.966, 1054.669 437 C 1055.030 437.825, 1056.120 439.649, 1057.091 441.053 C 1060.135 445.457, 1070 464.783, 1070 466.344 C 1070 467.163, 1070.341 467.983, 1070.757 468.167 C 1071.173 468.350, 1073.450 473.450, 1075.815 479.500 C 1078.181 485.550, 1080.461 491.175, 1080.882 492 C 1081.766 493.734, 1089.695 518.800, 1091.004 524 C 1091.488 525.925, 1092.626 530.875, 1093.531 535 C 1094.437 539.125, 1095.587 544.124, 1096.087 546.109 C 1100.479 563.549, 1103.481 601.348, 1101.954 620 C 1101.025 631.345, 1099.297 643.711, 1098.448 645.085 C 1097.493 646.630, 1090.961 670.318, 1088.958 679.500 C 1085.246 696.522, 1086.755 720.568, 1092.630 738 C 1094.020 742.125, 1097.460 750.225, 1100.275 756 C 1104.725 765.127, 1106.937 769.149, 1112.686 778.558 C 1113.339 779.626, 1115.933 783.875, 1118.452 788 C 1120.971 792.125, 1124.806 798.200, 1126.975 801.500 C 1129.144 804.800, 1131.653 808.942, 1132.551 810.704 C 1133.449 812.466, 1134.818 814.434, 1135.592 815.076 C 1136.366 815.719, 1137 816.710, 1137 817.278 C 1137 817.846, 1138.125 819.786, 1139.500 821.589 C 1140.875 823.392, 1142 825.186, 1142 825.577 C 1142 825.968, 1144.861 830.610, 1148.358 835.894 C 1164.254 859.913, 1170.429 869.485, 1171.650 872 C 1172.051 872.825, 1173.808 875.750, 1175.556 878.500 C 1189.293 900.119, 1192.513 912.565, 1187.916 926.282 C 1184.565 936.281, 1174.735 947.555, 1167.649 949.528 C 1166.467 949.857, 1164.600 950.498, 1163.500 950.953 C 1158.134 953.172, 1152.261 953.841, 1138.413 953.811 C 1123.865 953.780, 1123.120 953.880, 1117.576 956.594 C 1101.443 964.494, 1092.007 986.168, 1097.569 1002.551 C 1098.432 1005.092, 1101.331 1010.886, 1104.013 1015.425 C 1111.098 1027.421, 1112.373 1031.099, 1111.701 1037.607 C 1110.525 1049.004, 1101.804 1060.343, 1089.500 1066.475 C 1085.650 1068.393, 1083.187 1069.971, 1084.028 1069.981 C 1087.026 1070.018, 1097.581 1063.774, 1102.294 1059.177 C 1112.915 1048.815, 1116.014 1035.092, 1110.274 1023.842 C 1108.775 1020.904, 1107.286 1018.275, 1106.965 1018 C 1106.645 1017.725, 1104.627 1014.350, 1102.482 1010.500 C 1098.845 1003.972, 1098.554 1002.848, 1098.178 993.830 C 1097.718 982.812, 1099.113 977.617, 1104.578 970 C 1108.106 965.082, 1113.398 960, 1114.991 960 C 1115.546 960, 1116 959.550, 1116 959 C 1116 958.450, 1116.814 958, 1117.809 958 C 1118.804 958, 1120.491 957.339, 1121.559 956.532 C 1123.077 955.384, 1127.055 955.057, 1139.812 955.032 C 1156.880 954.999, 1161.639 954.182, 1170.832 949.709 C 1176.395 947.002, 1184.073 938.588, 1187.677 931.250 C 1190.292 925.924, 1190.496 924.652, 1190.445 914 C 1190.392 902.632, 1190.346 902.414, 1186.497 895 C 1184.355 890.875, 1182.242 887.350, 1181.801 887.167 C 1181.361 886.983, 1181 886.357, 1181 885.775 C 1181 885.192, 1179.200 881.866, 1177 878.383 C 1174.800 874.899, 1173 871.625, 1173 871.108 C 1173 870.590, 1172.648 870.017, 1172.217 869.833 C 1171.404 869.487, 1163 856.444, 1163 855.528 C 1163 855.242, 1160.750 851.854, 1158 848 C 1155.250 844.146, 1153 840.582, 1153 840.080 C 1153 839.578, 1152.640 839.017, 1152.199 838.833 C 1151.759 838.650, 1149.171 834.916, 1146.449 830.536 C 1139.336 819.089, 1139.097 818.680, 1138.399 816.750 C 1138.051 815.788, 1137.472 815, 1137.111 815 C 1136.750 815, 1135.569 813.313, 1134.487 811.250 C 1133.405 809.188, 1132.276 807.275, 1131.979 807 C 1130.576 805.700, 1118 785.129, 1118 784.134 C 1118 783.510, 1117.602 783, 1117.117 783 C 1116.631 783, 1115.969 782.212, 1115.646 781.250 C 1115.075 779.549, 1113.010 776.010, 1112 775 C 1110.699 773.699, 1100.202 753.092, 1097.482 746.500 C 1096.574 744.300, 1095.450 741.768, 1094.984 740.873 C 1094.518 739.978, 1093.822 737.503, 1093.438 735.373 C 1093.054 733.243, 1092.401 731.050, 1091.988 730.500 C 1091.575 729.950, 1091 727.925, 1090.710 726 C 1090.420 724.075, 1089.644 719.125, 1088.985 715 C 1087.186 703.746, 1088.227 686.564, 1091.438 674.500 C 1094.806 661.846, 1095.928 658, 1096.983 655.500 C 1097.447 654.400, 1098.583 650.125, 1099.507 646 C 1100.431 641.875, 1101.707 636.700, 1102.343 634.500 C 1103.101 631.880, 1103.474 621.187, 1103.425 603.500 C 1103.356 578.637, 1103.134 575.313, 1100.626 561.500 C 1099.128 553.250, 1097.499 545.150, 1097.006 543.500 C 1096.512 541.850, 1095.371 536.900, 1094.470 532.500 C 1093.569 528.100, 1092.466 523.375, 1092.019 522 C 1091.571 520.625, 1090.435 516.800, 1089.494 513.500 C 1087.290 505.776, 1085.498 500.259, 1083.970 496.500 C 1081.563 490.577, 1081.132 489.430, 1079.455 484.500 C 1078.520 481.750, 1076.685 477.205, 1075.377 474.400 C 1074.070 471.596, 1073 468.783, 1073 468.150 C 1073 467.518, 1072.550 467, 1072 467 C 1071.450 467, 1071 466.364, 1071 465.587 C 1071 463.977, 1060.778 443.901, 1057.900 439.860 C 1056.855 438.392, 1056 436.893, 1056 436.529 C 1056 436.165, 1054.875 434.392, 1053.500 432.589 C 1052.125 430.786, 1051 428.997, 1051 428.613 C 1051 428.230, 1050.540 427.372, 1049.977 426.708 C 1049.415 426.044, 1045.477 420.494, 1041.227 414.376 C 1033.803 403.688, 1030.653 399.437, 1026.645 394.694 C 1018.202 384.704, 1015.887 382.030, 1011.500 377.200 C 1005.521 370.619, 992.637 357.995, 987.444 353.632 C 985.394 351.909, 982.466 349.312, 980.936 347.859 C 979.406 346.406, 977.732 345.056, 977.216 344.859 C 976.700 344.662, 974.574 343.150, 972.491 341.500 C 964.616 335.261, 960.461 331.954, 959.292 330.993 C 958.628 330.447, 957.723 330, 957.282 330 C 956.841 330, 955.266 328.875, 953.783 327.500 C 952.301 326.125, 950.823 325, 950.500 325 C 950.177 325, 948.695 323.870, 947.206 322.489 L 944.500 319.978 944.507 274.744 L 944.514 229.509 948.410 227.675 C 951.683 226.134, 952.994 226.013, 956.596 226.920 C 958.955 227.514, 962.374 228.008, 964.193 228.017 C 966.012 228.027, 971.550 228.951, 976.500 230.072 C 981.450 231.192, 987.300 232.468, 989.500 232.906 C 991.700 233.344, 994.625 234.169, 996 234.738 C 997.375 235.308, 1002.550 236.998, 1007.500 238.495 C 1012.450 239.991, 1017.400 241.576, 1018.500 242.017 C 1019.600 242.458, 1021.400 243.158, 1022.500 243.573 C 1023.600 243.988, 1024.725 244.427, 1025 244.548 C 1025.275 244.670, 1026.513 245.098, 1027.750 245.501 C 1028.987 245.904, 1030 246.575, 1030 246.992 C 1030 247.409, 1031.283 248.007, 1032.850 248.320 C 1034.418 248.634, 1038.130 249.970, 1041.100 251.289 C 1044.070 252.608, 1048.075 254.295, 1050 255.037 C 1051.925 255.779, 1055.075 257.262, 1057 258.333 C 1058.925 259.403, 1066.350 263.286, 1073.500 266.961 C 1087.017 273.909, 1091.154 276.154, 1092 277 C 1092.742 277.742, 1096.283 279.916, 1098 280.683 C 1098.825 281.052, 1099.725 281.612, 1100 281.927 C 1100.275 282.242, 1102.075 283.366, 1104 284.425 C 1105.925 285.483, 1107.725 286.630, 1108 286.973 C 1108.275 287.316, 1113.447 291.140, 1119.493 295.470 C 1125.539 299.800, 1131.002 303.829, 1131.632 304.422 C 1132.263 305.015, 1134.040 306.400, 1135.582 307.500 C 1138.504 309.584, 1150.930 320.030, 1154.615 323.500 C 1170.010 337.998, 1190.285 358.762, 1195.841 365.719 C 1197.678 368.021, 1200.068 370.938, 1201.151 372.202 C 1202.235 373.466, 1203.994 375.516, 1205.061 376.758 C 1206.127 377.999, 1207 379.354, 1207 379.768 C 1207 380.182, 1208.046 381.648, 1209.324 383.027 C 1210.602 384.405, 1212.511 386.876, 1213.566 388.516 C 1214.620 390.157, 1218.749 396.113, 1222.742 401.752 C 1226.734 407.390, 1230 412.383, 1230 412.847 C 1230 413.311, 1230.889 414.494, 1231.974 415.477 C 1233.060 416.460, 1234.248 418.217, 1234.614 419.382 C 1234.979 420.547, 1236.685 423.750, 1238.404 426.500 C 1240.124 429.250, 1242.423 433.300, 1243.515 435.500 C 1244.607 437.700, 1245.751 439.725, 1246.057 440 C 1246.363 440.275, 1247.209 442.075, 1247.937 444 C 1248.666 445.925, 1250.508 450.200, 1252.033 453.500 C 1254.480 458.799, 1258.444 467.595, 1261.046 473.500 C 1262.374 476.513, 1268.583 495.678, 1270.442 502.500 C 1271.341 505.800, 1272.481 509.400, 1272.975 510.500 C 1273.469 511.600, 1274.375 515.200, 1274.989 518.500 C 1275.603 521.800, 1276.547 526.750, 1277.088 529.500 C 1281.780 553.361, 1283.650 582.148, 1282.044 605.808 C 1280.807 624.026, 1278.827 640.530, 1277.750 641.593 C 1277.338 642, 1277 643.464, 1277 644.846 C 1277 646.227, 1276.565 648.740, 1276.033 650.429 C 1275.501 652.118, 1274.338 656.200, 1273.450 659.500 C 1272.561 662.800, 1271.478 666.190, 1271.044 667.033 C 1270.610 667.876, 1269.973 670.126, 1269.628 672.033 L 1269.003 675.500 1270.847 671.500 C 1274.102 664.441, 1279.883 640.935, 1282.036 626 C 1285.364 602.923, 1284.999 569.966, 1281.120 543.206 C 1277.504 518.263, 1267.285 483.149, 1257.342 461.500 C 1249.750 444.971, 1242.780 430.798, 1239.640 425.500 C 1231.644 412.013, 1212.416 383.903, 1206.089 376.451 C 1204.665 374.774, 1201.925 371.421, 1200 369.001 C 1170.198 331.529, 1119.425 289.362, 1078 267.681 C 1055.559 255.936, 1047.912 252.339, 1031.500 245.811 C 1026 243.623, 1020.600 241.458, 1019.500 241 C 1018.400 240.542, 1016.600 239.947, 1015.500 239.678 C 1012.083 238.842, 998.591 234.023, 996.764 232.986 C 995.809 232.444, 993.866 232, 992.448 232 C 991.029 232, 988.918 231.492, 987.757 230.870 C 986.596 230.249, 983.138 229.375, 980.073 228.928 C 977.008 228.481, 970.450 227.430, 965.500 226.593 C 953.505 224.564, 950.112 224.634, 946.250 226.989 M 566.575 275.597 C 563.866 276.458, 559.339 278.641, 556.515 280.447 C 551.504 283.653, 545 290.683, 545 292.894 C 545 293.502, 544.602 294, 544.117 294 C 543.631 294, 542.986 294.788, 542.683 295.750 C 542.380 296.712, 541.315 299.525, 540.316 302 C 538.723 305.947, 538.439 310.727, 538 340.892 C 537.575 370.105, 537.274 375.400, 536 376.057 C 531.470 378.392, 522.772 382, 521.673 382 C 520.973 382, 519.972 382.378, 519.450 382.840 C 518.927 383.302, 516.925 384.279, 515 385.011 C 510.955 386.550, 486.181 398.720, 481 401.713 C 472.327 406.724, 460.470 414.369, 460.167 415.146 C 459.983 415.616, 459.372 416, 458.808 416 C 456.905 416, 437.491 430.609, 424.152 442.080 C 419.943 445.698, 415.220 449.748, 413.656 451.080 C 396.010 466.100, 366.934 498.910, 347.300 525.959 C 343.890 530.656, 340.735 534.950, 340.288 535.500 C 338.771 537.370, 326 558.148, 326 558.747 C 326 559.075, 325.380 560.053, 324.621 560.921 C 322.041 563.875, 306 594.956, 306 597.001 C 306 597.550, 305.550 598, 305 598 C 304.450 598, 304 598.800, 304 599.777 C 304 600.755, 303.386 602.443, 302.635 603.527 C 301.884 604.612, 300.925 606.625, 300.504 608 C 300.083 609.375, 298.941 612.300, 297.965 614.500 C 296.989 616.700, 295.419 620.750, 294.475 623.500 C 293.531 626.250, 291.941 630.750, 290.942 633.500 C 288.130 641.240, 287.716 642.426, 287.451 643.500 C 287.315 644.050, 286.085 647.875, 284.718 652 C 283.350 656.125, 281.463 662.200, 280.524 665.500 C 279.585 668.800, 278.225 673.525, 277.502 676 C 276.105 680.779, 273.883 691.291, 272.006 702 C 271.379 705.575, 270.454 710.300, 269.949 712.500 C 269.445 714.700, 268.546 720.100, 267.951 724.500 C 267.357 728.900, 266.213 737.225, 265.409 743 C 262.155 766.377, 261.407 828.384, 264.112 850.500 C 264.650 854.900, 265.518 862.550, 266.040 867.500 C 266.563 872.450, 267.439 878.525, 267.987 881 C 268.536 883.475, 269.914 890, 271.049 895.500 C 276.424 921.522, 279.892 935.316, 282.046 939.236 C 282.571 940.191, 283 941.591, 283 942.347 C 283 944.961, 292.931 973.530, 296.958 982.500 C 297.452 983.600, 300.813 990.688, 304.428 998.252 C 308.043 1005.815, 311 1012.190, 311 1012.418 C 311 1013.122, 327.459 1042.278, 330.054 1046.170 C 361.174 1092.856, 375.814 1111.721, 399 1135.012 C 414.247 1150.329, 425.005 1160.016, 436.657 1168.922 C 447.768 1177.415, 469.065 1191.934, 475 1195.064 C 477.475 1196.369, 480.175 1197.962, 481 1198.604 C 483.278 1200.377, 503.644 1210.505, 511 1213.523 C 514.575 1214.990, 518.850 1216.790, 520.500 1217.523 C 529.902 1221.699, 533.249 1223.144, 535.497 1223.999 L 538 1224.950 538 1288.475 C 538 1330.158, 538.344 1352, 539 1352 C 539.550 1352, 540 1352.906, 540 1354.014 C 540 1355.121, 540.400 1356.809, 540.889 1357.764 C 541.378 1358.719, 542.616 1361.259, 543.639 1363.408 C 546.345 1369.090, 554.837 1377.423, 560.550 1380.003 C 563.273 1381.232, 565.950 1382.495, 566.500 1382.811 C 567.050 1383.126, 566.882 1382.623, 566.128 1381.692 C 565.373 1380.761, 563.910 1380, 562.878 1380 C 561.845 1380, 561 1379.550, 561 1379 C 561 1378.450, 560.308 1378, 559.463 1378 C 558.618 1378, 555.333 1375.412, 552.162 1372.250 C 545.937 1366.040, 543.681 1362.041, 540.139 1350.929 C 539.338 1348.417, 539 1328.919, 539 1285.179 C 539 1225.970, 538.914 1223, 537.200 1223 C 536.210 1223, 534.973 1222.622, 534.450 1222.160 C 533.928 1221.698, 531.925 1220.727, 530 1220.002 C 523.489 1217.550, 511.585 1212.370, 505.669 1209.414 C 504.112 1208.636, 502.199 1208, 501.419 1208 C 500.639 1208, 500 1207.550, 500 1207 C 500 1206.450, 499.368 1206, 498.596 1206 C 497.824 1206, 494.473 1204.463, 491.149 1202.584 C 487.825 1200.705, 484.182 1198.875, 483.053 1198.517 C 481.924 1198.158, 481 1197.446, 481 1196.933 C 481 1196.420, 480.473 1196, 479.830 1196 C 478.466 1196, 457.661 1182.951, 457.167 1181.786 C 456.983 1181.354, 456.196 1181, 455.417 1181 C 454.637 1181, 454 1180.622, 454 1180.161 C 454 1179.699, 452.985 1178.859, 451.745 1178.293 C 449.094 1177.086, 426.520 1159.485, 420.048 1153.580 C 413.286 1147.411, 388.990 1123.109, 384.476 1118 C 382.289 1115.525, 377.801 1110.125, 374.502 1106 C 371.203 1101.875, 368.250 1098.275, 367.938 1098 C 366.162 1096.433, 345.364 1067.387, 344.309 1065 C 343.944 1064.175, 343.377 1063.275, 343.049 1063 C 342.132 1062.232, 332 1047.013, 332 1046.403 C 332 1046.108, 330.875 1044.392, 329.500 1042.589 C 328.125 1040.786, 327 1038.995, 327 1038.608 C 327 1037.999, 325.591 1035.591, 319.296 1025.442 C 316.912 1021.598, 312 1011.317, 312 1010.171 C 312 1009.527, 311.550 1009, 311 1009 C 310.450 1009, 310 1008.553, 310 1008.007 C 310 1006.299, 306.567 999, 305.764 999 C 305.344 999, 305 998.510, 305 997.912 C 305 997.313, 303.650 993.907, 302 990.342 C 300.350 986.777, 299 983.662, 299 983.419 C 299 983.177, 298.162 981.071, 297.137 978.739 C 296.112 976.408, 294.483 972.475, 293.517 970 C 292.551 967.525, 291.402 964.600, 290.964 963.500 C 290.526 962.400, 288.750 956.775, 287.018 951 C 285.285 945.225, 283.447 939.719, 282.934 938.764 C 282.420 937.809, 282 935.971, 282 934.680 C 282 933.389, 281.691 932.024, 281.313 931.646 C 280.316 930.649, 277.125 917.981, 277.058 914.750 C 277.026 913.237, 276.650 912, 276.221 912 C 275.793 912, 274.863 908.737, 274.155 904.750 C 272.881 897.576, 271.607 890.842, 270.608 886 C 268.548 876.017, 266.919 863.841, 265.055 844.500 C 263.910 832.621, 263.924 776.464, 265.074 762.500 C 266.635 743.556, 269.998 717.072, 271.232 714 C 271.564 713.175, 272.109 710.700, 272.445 708.500 C 273.754 699.903, 275.667 689.428, 276.190 688 C 276.491 687.175, 277.514 682.900, 278.463 678.500 C 279.411 674.100, 280.595 669.719, 281.094 668.764 C 281.592 667.809, 282 666.148, 282 665.073 C 282 663.998, 282.437 662.848, 282.971 662.518 C 283.505 662.188, 284.238 659.686, 284.600 656.959 C 284.962 654.232, 285.650 652, 286.129 652 C 286.608 652, 287 650.902, 287 649.559 C 287 648.216, 287.399 646.871, 287.887 646.570 C 288.374 646.269, 289.080 644.387, 289.455 642.388 C 289.830 640.389, 290.504 638.022, 290.952 637.127 C 292.628 633.781, 293.864 630.410, 294.481 627.500 C 294.831 625.850, 295.952 622.700, 296.973 620.500 C 299.515 615.019, 302.423 608.194, 304.002 604 C 304.727 602.075, 305.698 600.072, 306.160 599.550 C 306.622 599.027, 307 597.790, 307 596.800 C 307 595.810, 307.450 595, 308 595 C 308.550 595, 309.003 594.438, 309.006 593.750 C 309.010 593.063, 309.741 591.150, 310.632 589.500 C 311.523 587.850, 314.366 582.450, 316.950 577.500 C 319.534 572.550, 322.852 566.596, 324.324 564.270 C 325.796 561.943, 327 559.776, 327 559.453 C 327 559.131, 328.125 557.392, 329.500 555.589 C 330.875 553.786, 332 552.007, 332 551.634 C 332 550.794, 337.047 542.975, 338.748 541.179 C 339.437 540.452, 340 539.214, 340 538.429 C 340 537.643, 340.353 537, 340.784 537 C 341.216 537, 342.423 535.554, 343.467 533.787 C 345.364 530.575, 356.831 514.944, 357.983 514 C 358.319 513.725, 360.822 510.653, 363.547 507.174 C 379.028 487.403, 379.715 486.621, 396.524 469.660 C 415.362 450.651, 436.350 432, 438.903 432 C 439.414 432, 439.983 431.644, 440.167 431.209 C 440.448 430.540, 442.488 428.913, 449.499 423.765 C 450.050 423.361, 451.850 421.984, 453.500 420.706 C 457.039 417.964, 469.699 410, 470.519 410 C 470.832 410, 472.301 408.875, 473.783 407.500 C 475.266 406.125, 477.047 405, 477.740 405 C 478.433 405, 479 404.586, 479 404.079 C 479 403.573, 480.350 402.862, 482 402.500 C 483.650 402.138, 485.001 401.539, 485.001 401.171 C 485.002 400.802, 487.927 399.165, 491.501 397.534 C 495.076 395.903, 498 394.216, 498 393.784 C 498 393.353, 498.723 393, 499.607 393 C 500.491 393, 503.978 391.689, 507.357 390.086 C 517.721 385.169, 527.021 381, 527.624 381 C 527.940 381, 529.616 380.356, 531.349 379.568 C 533.082 378.780, 535.400 377.987, 536.500 377.805 C 538.449 377.482, 538.507 376.593, 538.763 343.023 C 538.924 322.070, 539.413 308.187, 540.013 307.587 C 540.556 307.044, 541 305.754, 541 304.721 C 541 301.442, 548.222 289.116, 552.439 285.197 C 556.502 281.421, 562.569 278, 565.201 278 C 565.971 278, 567.162 277.438, 567.850 276.750 C 569.457 275.142, 588.727 275.047, 592.096 276.630 C 593.418 277.252, 596.326 278.519, 598.557 279.445 C 602.508 281.085, 613 290.326, 613 292.165 C 613 292.670, 613.857 294.004, 614.905 295.128 C 615.953 296.253, 617.118 298.822, 617.494 300.837 C 617.871 302.851, 618.701 305.131, 619.339 305.903 C 620.194 306.937, 620.500 324.527, 620.500 372.617 C 620.500 433.795, 620.388 438.040, 618.728 439.700 C 617.329 441.099, 614.485 441.619, 605.228 442.164 C 598.778 442.544, 590.350 443.514, 586.500 444.319 C 582.650 445.123, 577.925 446.092, 576 446.472 C 574.075 446.851, 571.600 447.537, 570.500 447.996 C 569.400 448.455, 566.025 449.634, 563 450.617 C 559.975 451.600, 557.072 452.763, 556.550 453.202 C 556.027 453.641, 554.971 454, 554.201 454 C 553.432 454, 551.159 454.729, 549.151 455.619 C 536.561 461.204, 534.300 462.239, 532.500 463.248 C 531.400 463.865, 527.125 466.104, 523 468.224 C 518.875 470.345, 514.150 472.967, 512.500 474.052 C 510.850 475.136, 508.712 476.296, 507.750 476.628 C 506.788 476.961, 506 477.631, 506 478.117 C 506 478.602, 505.325 479, 504.500 479 C 503.675 479, 503 479.450, 503 480 C 503 480.550, 502.571 481, 502.047 481 C 499.996 481, 478.528 497.302, 467.052 507.575 C 464.548 509.816, 460.721 513.191, 458.547 515.075 C 445.044 526.775, 427.601 545.857, 415.926 561.699 C 411.548 567.640, 407.578 572.985, 407.104 573.578 C 406.630 574.172, 404.995 576.647, 403.471 579.078 C 401.948 581.510, 400.427 583.725, 400.091 584 C 398.701 585.139, 393.678 593.511, 386.591 606.500 C 385.991 607.600, 385.240 608.725, 384.922 609 C 384.382 609.467, 383.605 610.894, 379.342 619.250 C 378.430 621.038, 376.855 623.694, 375.842 625.154 C 374.829 626.614, 374 628.304, 374 628.909 C 374 629.515, 372.875 632.342, 371.500 635.192 C 370.125 638.042, 369 640.742, 369 641.192 C 369 641.642, 367.979 644.145, 366.730 646.755 C 365.482 649.365, 363.571 654.200, 362.484 657.500 C 361.398 660.800, 360.282 663.725, 360.004 664 C 359.171 664.826, 356 674.645, 356 676.398 C 356 677.294, 355.605 678.809, 355.123 679.764 C 353.915 682.153, 351.814 688.785, 350.928 693 C 350.524 694.925, 349.482 699.082, 348.612 702.239 C 347.743 705.395, 346.597 710.345, 346.067 713.239 C 345.537 716.132, 344.619 720.525, 344.028 723 C 337.554 750.099, 334.586 793.521, 337.055 825 C 339.671 858.360, 342.932 878.732, 349.381 902 C 350.829 907.225, 352.498 913.525, 353.090 916 C 353.682 918.475, 354.532 921.400, 354.978 922.500 C 355.424 923.600, 356.558 926.750, 357.499 929.500 C 359.869 936.425, 363.858 946.878, 365.570 950.651 C 366.356 952.384, 367 954.055, 367 954.363 C 367 954.882, 373.150 968.603, 374.905 972 C 379.787 981.448, 387.092 994.738, 390.168 999.768 C 392.275 1003.215, 394 1006.477, 394 1007.018 C 394 1007.558, 394.450 1008, 395 1008 C 395.550 1008, 396 1008.426, 396 1008.946 C 396 1009.764, 407.149 1026.309, 409.990 1029.708 C 410.546 1030.372, 411 1031.190, 411 1031.525 C 411 1031.859, 412.238 1033.791, 413.750 1035.816 C 415.262 1037.841, 416.829 1039.949, 417.230 1040.499 C 426.662 1053.431, 456.326 1084.706, 465.809 1091.717 C 467.839 1093.218, 470.600 1095.497, 471.945 1096.782 C 473.290 1098.066, 475.652 1099.863, 477.195 1100.774 C 478.738 1101.686, 480 1102.784, 480 1103.216 C 480 1103.647, 480.597 1104, 481.326 1104 C 482.055 1104, 483.708 1105.125, 485 1106.500 C 486.292 1107.875, 487.633 1109, 487.979 1109 C 488.527 1109, 506.655 1120.509, 509.559 1122.701 C 511.770 1124.369, 527.556 1132.032, 528.750 1132.016 C 529.438 1132.007, 530 1132.344, 530 1132.764 C 530 1133.567, 537.299 1137, 539.007 1137 C 539.553 1137, 540 1137.450, 540 1138 C 540 1138.550, 540.873 1139, 541.941 1139 C 543.009 1139, 544.129 1139.400, 544.432 1139.889 C 544.734 1140.378, 546.223 1141.067, 547.741 1141.421 C 549.258 1141.774, 552.300 1142.900, 554.500 1143.924 C 556.700 1144.947, 560.750 1146.546, 563.500 1147.476 C 566.250 1148.406, 569.175 1149.437, 570 1149.767 C 571.501 1150.366, 579.543 1152.253, 588 1153.988 C 597.794 1155.998, 604.705 1156.989, 609 1156.998 C 615.119 1157.011, 619.702 1159.897, 620.519 1164.252 C 621.664 1170.351, 620.605 1352.308, 619.412 1354.500 C 618.814 1355.600, 617.050 1359.127, 615.494 1362.338 C 612.787 1367.919, 608.547 1373.057, 604.421 1375.756 C 602.687 1376.890, 600.882 1377.788, 593.097 1381.389 C 591.776 1382, 585.605 1382.500, 579.384 1382.500 C 573.164 1382.500, 568.845 1382.806, 569.787 1383.180 C 570.729 1383.554, 575.368 1383.891, 580.095 1383.930 C 598.731 1384.082, 611.887 1375.431, 618.999 1358.347 L 622.130 1350.826 622.315 1256.521 C 622.498 1163.492, 622.473 1162.187, 620.500 1159.994 C 617.672 1156.850, 614.752 1155.943, 604.500 1155.021 C 594.138 1154.090, 575.248 1150.090, 566.500 1146.975 C 563.200 1145.800, 560.050 1144.719, 559.500 1144.573 C 558.431 1144.289, 557.809 1144.036, 545.500 1138.889 C 534.563 1134.315, 511.960 1122.671, 503.719 1117.366 C 499.989 1114.965, 496.539 1113, 496.052 1113 C 495.565 1113, 495.017 1112.662, 494.833 1112.250 C 494.650 1111.838, 492.025 1109.875, 489 1107.888 C 466.758 1093.281, 435.647 1063.156, 417.858 1039 C 412.205 1031.324, 396.424 1008.096, 394.419 1004.500 C 393.805 1003.400, 392.305 1000.700, 391.086 998.500 C 389.866 996.300, 387.941 992.925, 386.807 991 C 384.441 986.982, 373.972 966.215, 371.685 961 C 370.840 959.075, 368.991 954.899, 367.575 951.720 C 366.159 948.542, 365 945.369, 365 944.670 C 365 943.972, 364.610 942.972, 364.134 942.450 C 363.110 941.328, 356.496 922.258, 355.133 916.500 C 354.612 914.300, 352.760 907.550, 351.016 901.500 C 345.616 882.758, 342.190 863.103, 339.075 833 C 337.733 820.026, 337.653 771.628, 338.961 764.060 C 339.490 761.002, 340.830 752.200, 341.939 744.500 C 343.939 730.619, 344.327 728.501, 347.524 714 C 352.411 691.836, 358.110 671.357, 361.619 663.349 C 362.379 661.616, 363 659.568, 363 658.799 C 363 658.029, 363.378 656.973, 363.840 656.450 C 364.302 655.928, 365.269 653.925, 365.990 652 C 367.267 648.587, 368.686 645.129, 371.733 638 C 374.940 630.498, 384.920 611.163, 388.370 605.771 C 390.366 602.650, 392 599.838, 392 599.524 C 392 597.571, 412.760 567.314, 423.897 553.034 C 442.359 529.364, 488.364 488.961, 510.580 476.907 C 513.836 475.140, 517.625 472.952, 519 472.045 C 521.182 470.605, 527.890 467.293, 548.600 457.429 C 551.405 456.093, 554.352 455, 555.150 455 C 555.947 455, 557.027 454.621, 557.550 454.158 C 559.378 452.539, 579.951 446.912, 591.774 444.797 C 594.923 444.233, 601.872 443.569, 607.216 443.320 C 616.430 442.892, 617.057 442.721, 619.342 440.005 C 620.667 438.430, 622.029 435.197, 622.369 432.821 C 623.205 426.971, 622.325 313.662, 621.400 308 C 620.327 301.432, 614.550 290.783, 609.178 285.472 C 606.605 282.928, 601.575 279.452, 598 277.748 C 592.312 275.038, 590.251 274.612, 581.500 274.341 C 574.444 274.122, 570.050 274.492, 566.575 275.597 M 576 515.940 C 567.612 517.432, 550.917 523.421, 550.167 525.206 C 549.983 525.643, 549.160 526, 548.338 526 C 547.096 526, 539.786 529.657, 529.500 535.423 C 525.455 537.691, 515.490 544.523, 515.167 545.250 C 514.983 545.663, 514.408 546, 513.888 546 C 511.654 546, 484.242 568.575, 485.251 569.584 C 485.486 569.820, 486.764 569.063, 488.090 567.902 C 494.715 562.100, 500.056 557.710, 505.500 553.593 C 508.800 551.097, 512.044 548.593, 512.708 548.028 C 513.372 547.462, 514.385 547, 514.958 547 C 515.531 547, 516.007 546.663, 516.015 546.250 C 516.023 545.837, 518.716 543.925, 522 542 C 525.284 540.075, 527.977 538.163, 527.985 537.750 C 527.993 537.337, 528.638 537, 529.417 537 C 530.196 537, 530.983 536.663, 531.167 536.250 C 531.604 535.265, 548.157 526.982, 549.667 526.992 C 550.308 526.996, 550.983 526.624, 551.167 526.164 C 551.508 525.308, 561.419 521.470, 570.688 518.604 C 573.924 517.603, 579.489 517, 585.480 517 C 594.084 517, 595.760 517.316, 601.578 520.037 C 610.998 524.441, 620 534.747, 620 541.129 C 620 542.093, 620.450 543.160, 621 543.500 C 622.375 544.350, 622.264 560.258, 620.859 563.703 C 617.549 571.821, 616.264 573.930, 611.733 578.682 C 609.016 581.532, 604.251 585.132, 601.146 586.682 C 598.041 588.232, 595.275 589.748, 595 590.052 C 594.725 590.356, 592.925 591.306, 591 592.165 C 579.779 597.168, 575 599.582, 575 600.248 C 575 600.662, 574.545 601, 573.989 601 C 572.909 601, 557.367 610.528, 555.413 612.388 C 554.771 613, 553.227 614.175, 551.983 615 C 544.183 620.174, 525.612 638.427, 517.902 648.500 C 514.955 652.350, 512.294 655.725, 511.989 656 C 511.684 656.275, 509.882 658.975, 507.985 662 C 506.088 665.025, 504.191 667.650, 503.768 667.833 C 503.346 668.017, 503 668.767, 503 669.500 C 503 670.233, 502.663 670.983, 502.250 671.167 C 501.406 671.542, 499.835 674.353, 492.855 687.974 C 490.185 693.185, 488 698.023, 488 698.724 C 488 699.426, 487.550 700, 487 700 C 486.450 700, 486 700.660, 486 701.466 C 486 702.272, 485.263 704.635, 484.361 706.716 C 476.055 725.897, 471.603 744.592, 466.910 780 C 464.704 796.647, 467.443 837.037, 471.997 855 C 472.486 856.925, 473.669 861.875, 474.628 866 C 475.586 870.125, 476.737 873.928, 477.185 874.450 C 477.633 874.973, 478 876.195, 478 877.166 C 478 878.137, 478.737 880.635, 479.639 882.716 C 480.540 884.797, 481.618 887.400, 482.035 888.500 C 485.876 898.630, 495.182 918.206, 497.010 920 C 497.290 920.275, 498.405 922.188, 499.487 924.250 C 500.569 926.313, 501.802 928, 502.227 928 C 502.652 928, 503 928.480, 503 929.067 C 503 930.087, 507.120 936.042, 509.750 938.821 C 510.438 939.548, 511 940.476, 511 940.883 C 511 941.290, 511.818 942.501, 512.817 943.573 C 513.816 944.646, 515.054 946.240, 515.567 947.116 C 520.057 954.779, 542.494 976.973, 550.949 982.115 C 552.507 983.063, 554.098 984.350, 554.485 984.975 C 554.872 985.601, 557.672 987.325, 560.708 988.807 C 569.194 992.947, 570 993.418, 570 994.237 C 570 994.657, 570.718 995, 571.596 995 C 572.473 995, 574.386 995.827, 575.846 996.837 C 577.306 997.848, 579.175 998.970, 580 999.331 C 580.825 999.692, 582.175 1000.396, 583 1000.896 C 583.825 1001.396, 588.681 1003.649, 593.792 1005.902 C 603.745 1010.291, 603.963 1010.431, 610.314 1016.500 C 615.009 1020.987, 615.898 1022.275, 619.480 1029.780 C 621.558 1034.134, 622 1036.541, 622 1043.515 C 622 1051.878, 620.327 1061, 618.793 1061 C 618.357 1061, 618 1061.570, 618 1062.267 C 618 1062.964, 616 1065.821, 613.555 1068.616 C 609.595 1073.142, 605.002 1076.089, 595.371 1080.281 C 592.024 1081.739, 569.095 1079.945, 566.500 1078.022 C 565.950 1077.615, 564.105 1077.018, 562.400 1076.696 C 558.305 1075.922, 536.182 1065.876, 530 1061.982 C 529.175 1061.463, 524.004 1058.252, 518.508 1054.848 C 513.013 1051.445, 507.918 1048.061, 507.187 1047.330 C 506.456 1046.598, 505.524 1046, 505.117 1046 C 504.710 1046, 503.500 1045.213, 502.428 1044.250 C 501.356 1043.287, 498.234 1040.722, 495.490 1038.548 C 488.908 1033.335, 467.884 1012.099, 461.238 1003.951 C 454.315 995.463, 455.031 996.411, 449.953 989 C 447.504 985.425, 445.163 982.350, 444.750 982.167 C 444.337 981.983, 444 981.196, 444 980.417 C 444 979.637, 443.663 978.993, 443.250 978.985 C 442.837 978.977, 440.925 976.284, 439 973 C 437.075 969.716, 435.163 967.023, 434.750 967.015 C 434.337 967.007, 434 966.480, 434 965.844 C 434 965.209, 432.976 963.296, 431.724 961.594 C 430.472 959.892, 428.559 956.700, 427.474 954.500 C 426.388 952.300, 425.163 950.350, 424.750 950.167 C 424.337 949.983, 424 949.430, 424 948.936 C 424 948.442, 422.256 944.317, 420.125 939.769 C 417.993 935.221, 414.578 927, 412.535 921.500 C 410.493 916, 408.450 910.600, 407.995 909.500 C 407.540 908.400, 405.762 902.775, 404.044 897 C 402.327 891.225, 400.489 885.118, 399.961 883.429 C 399.432 881.740, 399 879.596, 399 878.665 C 399 877.735, 398.584 876.191, 398.075 875.236 C 397.239 873.668, 396.556 869.004, 393.866 846.500 C 391.462 826.392, 390.856 812.618, 391.339 789 C 391.625 774.975, 392.316 761.475, 392.875 759 C 393.434 756.525, 394.773 748.200, 395.851 740.500 C 397.734 727.050, 401.826 708.841, 403.296 707.371 C 403.683 706.984, 404 705.643, 404 704.392 C 404 703.141, 404.411 701.864, 404.913 701.554 C 405.415 701.243, 406.129 699.194, 406.500 697 C 406.871 694.806, 407.585 692.757, 408.087 692.446 C 408.589 692.136, 409 691.060, 409 690.055 C 409 689.051, 409.672 686.940, 410.494 685.364 C 411.315 683.789, 411.990 681.803, 411.994 680.950 C 411.997 680.097, 412.391 678.972, 412.869 678.450 C 413.346 677.928, 414.568 675.250, 415.584 672.500 C 418.230 665.341, 433.478 635.374, 436.474 631.445 C 437.863 629.624, 439 627.856, 439 627.518 C 439 626.907, 446.998 614.958, 448.048 614 C 448.350 613.725, 449.679 611.925, 451.003 610 C 457.006 601.269, 465.883 590.705, 478.238 577.591 C 481.394 574.241, 483.968 571.050, 483.957 570.500 C 483.929 569.109, 469.535 584.567, 460.230 595.982 C 451.978 606.105, 443.189 618.220, 435.704 629.791 C 426.820 643.523, 409.386 680.252, 407.450 689.315 C 407.075 691.067, 406.425 692.950, 406.005 693.500 C 405.241 694.500, 401.869 705.878, 398.152 720 C 396.183 727.479, 394.216 738.446, 391.784 755.500 C 390.083 767.427, 390.028 830.180, 391.708 842 C 392.373 846.675, 393.648 855.900, 394.541 862.500 C 397.964 887.793, 408.684 920.188, 423.001 948.500 C 428.094 958.571, 442.049 980.746, 449.433 990.500 C 472.341 1020.760, 489.105 1037.045, 515 1054.192 C 534.408 1067.043, 554.633 1076.575, 571 1080.582 C 579.046 1082.552, 592.575 1082.370, 599.095 1080.204 C 610.323 1076.475, 618.471 1067.850, 622.017 1055.942 C 626.595 1040.569, 622.720 1026.538, 610.703 1014.980 C 605.883 1010.344, 602.822 1008.571, 585 1000.095 C 581.425 998.395, 577.150 996.260, 575.500 995.350 C 573.850 994.441, 571.600 993.234, 570.500 992.668 C 548.140 981.162, 528.904 963.656, 510.809 938.350 C 495.921 917.527, 483.353 892.120, 477.740 871.500 C 470.037 843.204, 468.577 831.864, 468.596 800.500 C 468.606 784.039, 469.076 770.963, 469.801 767 C 473.127 748.805, 474.076 743.931, 475.550 737.500 C 476.432 733.650, 477.516 729.600, 477.958 728.500 C 478.401 727.400, 480.646 721.100, 482.948 714.500 C 488.864 697.540, 499.184 676.821, 508.348 663.506 C 529.469 632.820, 554.256 611.229, 585.772 596.062 C 603.301 587.628, 605.897 586.050, 611.852 580.224 C 619.475 572.765, 622.167 566.953, 623.387 555.324 C 624.245 547.146, 619.974 533.434, 614.865 527.969 C 612.115 525.027, 604.990 520.057, 600.082 517.657 C 596.110 515.715, 582.657 514.756, 576 515.940 M 592.655 670.750 C 592.400 671.163, 596.536 671.500, 601.845 671.500 C 612.532 671.500, 616.583 672.908, 619.734 677.717 C 621.384 680.235, 621.466 687.190, 621.137 796.411 C 620.944 860.222, 620.419 913.399, 619.969 914.583 C 618.561 918.284, 614.692 921.609, 609.511 923.568 C 602.633 926.169, 588.370 926.169, 581.489 923.569 C 578.745 922.532, 576.275 921.413, 576 921.082 C 575.725 920.752, 573.521 919.198, 571.103 917.629 C 558.454 909.425, 544.446 890.339, 535.044 868.500 C 531.708 860.752, 531.279 859.711, 530.103 856.500 C 524.718 841.792, 519.212 796.230, 521.811 787.881 C 522.992 784.086, 524.549 767.191, 523.637 768.058 C 522.416 769.220, 520 790.762, 520.008 800.424 C 520.019 814.196, 524.134 845.347, 526.104 846.564 C 526.597 846.869, 527 848.120, 527 849.344 C 527 851.403, 529.897 860.847, 531.955 865.500 C 538.394 880.053, 540.642 884.096, 550 897.961 C 562.788 916.907, 583.142 929.434, 598.252 927.658 C 611.922 926.051, 619.710 921.307, 621.956 913.220 C 622.639 910.760, 622.989 870.705, 622.991 795 C 622.993 681.938, 622.967 680.458, 620.976 677.192 C 617.918 672.178, 612.226 670.048, 601.809 670.022 C 597.029 670.010, 592.909 670.337, 592.655 670.750 M 974.292 672.532 C 966.323 673.987, 956.693 679.357, 949.250 686.492 C 945.813 689.788, 943 692.835, 943 693.262 C 943 693.690, 941.958 695.718, 940.685 697.770 C 935.526 706.080, 932.984 721.862, 935.003 733.046 C 936.290 740.177, 941.529 751.198, 946.743 757.743 C 949.793 761.573, 961.693 771, 963.476 771 C 963.873 771, 965.616 771.608, 967.349 772.352 C 975.309 775.766, 988.183 777.072, 994.601 775.117 C 996.195 774.631, 999.525 773.628, 1002 772.889 C 1009.529 770.640, 1015.167 766.975, 1022.500 759.566 C 1033.702 748.247, 1037.005 740.052, 1036.989 723.624 C 1036.973 706.544, 1033.822 698.191, 1023.061 686.697 C 1019.055 682.419, 1010.243 676.424, 1009.319 677.348 C 1008.986 677.681, 1009.566 678.278, 1010.607 678.676 C 1013.235 679.680, 1014.506 680.709, 1020.904 687.013 C 1029.189 695.176, 1029.981 696.372, 1034.133 707 C 1035.990 711.753, 1035.997 734.219, 1034.143 739 C 1027.990 754.866, 1014.718 767.777, 1000.500 771.730 C 984.916 776.062, 985.872 776.076, 969 771.251 C 960.611 768.852, 959.180 767.924, 950.370 759.171 C 946.867 755.691, 944 752.203, 944 751.421 C 944 750.640, 943.550 750, 943 750 C 942.450 750, 942 749.521, 942 748.936 C 942 748.351, 940.763 745.313, 939.250 742.186 C 936.682 736.876, 936.500 735.638, 936.500 723.482 C 936.500 711.317, 936.693 710.006, 939.446 703.482 C 941.066 699.642, 942.753 696.350, 943.196 696.167 C 943.638 695.983, 944 695.288, 944 694.622 C 944 691.803, 961.355 677.019, 964.695 676.994 C 965.138 676.990, 966.850 676.243, 968.500 675.333 C 973.112 672.790, 998.021 672.792, 1003.331 675.335 C 1005.438 676.345, 1007.379 676.954, 1007.644 676.690 C 1008.429 675.904, 1001.900 673.004, 998.059 672.434 C 991.306 671.430, 980.066 671.477, 974.292 672.532 M 584.015 673.665 C 574.162 677.112, 555.865 693.180, 547.578 705.662 C 545.446 708.873, 542.869 712.719, 541.851 714.210 C 540.833 715.700, 540 717.221, 540 717.589 C 540 717.958, 537.826 722.589, 535.169 727.880 C 532.512 733.171, 529.561 740.650, 528.612 744.500 C 527.663 748.350, 526.465 752.871, 525.952 754.547 C 524.402 759.602, 523.655 767.753, 524.902 766 C 525.489 765.175, 525.976 762.839, 525.985 760.809 C 525.993 758.779, 526.391 756.876, 526.869 756.581 C 527.346 756.286, 528.039 754.122, 528.408 751.772 C 529.276 746.245, 533.209 734.858, 536.446 728.500 C 537.846 725.750, 538.994 723.141, 538.996 722.702 C 538.998 722.263, 540.575 719.442, 542.500 716.433 C 544.425 713.423, 546 710.726, 546 710.438 C 546 709.304, 554.620 698.208, 559.421 693.162 C 567.067 685.127, 583.367 674, 587.494 674 C 588.257 674, 589.160 673.550, 589.500 673 C 590.318 671.676, 589.371 671.791, 584.015 673.665 M 1266.335 679.669 C 1264.886 682.694, 1264.510 685.814, 1264.548 694.500 C 1264.596 705.297, 1264.669 705.639, 1268.497 713 C 1270.642 717.125, 1272.758 720.650, 1273.199 720.833 C 1273.639 721.017, 1274 721.652, 1274 722.246 C 1274 723.287, 1279.806 732.982, 1281.040 734 C 1281.373 734.275, 1281.948 735.175, 1282.317 736 C 1282.685 736.825, 1283.553 738.374, 1284.244 739.442 C 1288.818 746.510, 1292 752.053, 1292 752.952 C 1292 753.528, 1292.348 754, 1292.773 754 C 1293.198 754, 1294.433 755.688, 1295.518 757.750 C 1296.604 759.813, 1301.881 768.595, 1307.246 777.266 C 1312.611 785.938, 1317 793.475, 1317 794.016 C 1317 794.557, 1317.348 795, 1317.773 795 C 1318.198 795, 1319.431 796.688, 1320.513 798.750 C 1321.595 800.813, 1322.710 802.725, 1322.990 803 C 1323.994 803.985, 1326.069 807.532, 1326.646 809.250 C 1326.969 810.212, 1327.518 811.004, 1327.867 811.009 C 1328.215 811.015, 1329.388 813.040, 1330.474 815.509 C 1331.560 817.979, 1332.797 820, 1333.224 820 C 1333.651 820, 1334 820.493, 1334 821.096 C 1334 821.698, 1335.013 823.601, 1336.250 825.325 C 1337.487 827.048, 1338.950 829.241, 1339.500 830.197 C 1340.050 831.153, 1344.662 838.478, 1349.750 846.475 C 1354.838 854.472, 1359 861.462, 1359 862.008 C 1359 862.553, 1359.348 863, 1359.773 863 C 1360.198 863, 1361.431 864.688, 1362.513 866.750 C 1363.595 868.813, 1364.756 870.725, 1365.092 871 C 1366.001 871.745, 1370.935 880.234, 1371.630 882.250 C 1371.962 883.212, 1372.631 884, 1373.117 884 C 1373.602 884, 1374 884.468, 1374 885.040 C 1374 885.612, 1377.776 892.055, 1382.392 899.357 C 1389.762 911.019, 1394.868 920.344, 1395.609 923.500 C 1395.739 924.050, 1396.549 926.750, 1397.411 929.500 C 1399.579 936.415, 1399.494 950.219, 1397.249 956.018 C 1393.731 965.104, 1386.973 973.383, 1380.750 976.230 C 1379.237 976.922, 1378 977.828, 1378 978.244 C 1378 978.660, 1377.506 979, 1376.901 979 C 1375.874 979, 1370.458 981.159, 1366.955 982.964 C 1366.106 983.402, 1361.381 984.509, 1356.455 985.424 C 1351.530 986.339, 1345.925 987.507, 1344 988.021 C 1342.075 988.534, 1337.125 989.469, 1333 990.099 C 1325.763 991.204, 1323.301 991.665, 1312.500 993.935 C 1301.503 996.247, 1291.647 1003.465, 1286.909 1012.678 C 1284.791 1016.795, 1284.500 1018.698, 1284.500 1028.430 C 1284.500 1040.124, 1284.835 1041.523, 1290.506 1053.500 C 1292.328 1057.350, 1294.535 1062.718, 1295.410 1065.428 C 1299.681 1078.664, 1295.159 1095.315, 1284.832 1104.384 C 1279.612 1108.968, 1270.605 1114, 1267.621 1114 C 1266.794 1114, 1265.840 1114.450, 1265.500 1115 C 1265.160 1115.550, 1263.527 1116, 1261.871 1116 C 1259.359 1116, 1258.914 1116.356, 1259.180 1118.148 C 1259.356 1119.329, 1260.365 1120.792, 1261.422 1121.398 C 1264.125 1122.948, 1268.041 1126.165, 1269.912 1128.373 C 1270.786 1129.403, 1272.239 1130.978, 1273.143 1131.873 C 1278.152 1136.834, 1282.866 1152.853, 1281.003 1158.586 C 1280.483 1160.189, 1279.827 1162.672, 1279.546 1164.106 C 1279.060 1166.580, 1273.145 1174, 1271.658 1174 C 1270.278 1174, 1262.433 1179.523, 1258.905 1182.979 C 1254 1187.782, 1250.726 1193.360, 1248.621 1200.500 C 1245.946 1209.570, 1247.226 1231.583, 1251.005 1241.500 C 1251.425 1242.600, 1252.606 1246.200, 1253.630 1249.500 C 1254.654 1252.800, 1255.764 1255.725, 1256.097 1256 C 1256.430 1256.275, 1256.940 1257.625, 1257.231 1259 C 1257.521 1260.375, 1258.537 1264.200, 1259.488 1267.500 C 1261.685 1275.129, 1262.979 1282.404, 1263.934 1292.500 C 1264.648 1300.050, 1264.699 1300.181, 1264.845 1294.822 C 1265.151 1283.608, 1262.127 1268.438, 1257.007 1255.500 C 1255.923 1252.761, 1251.395 1237.612, 1249.833 1231.500 C 1248.062 1224.566, 1248.132 1205.644, 1249.950 1200 C 1253.125 1190.143, 1259.327 1182.627, 1268.570 1177.437 C 1278.637 1171.785, 1283.885 1161.859, 1282.728 1150.657 C 1282.207 1145.605, 1278.480 1135.870, 1276.797 1135.167 C 1276.359 1134.983, 1276 1134.381, 1276 1133.828 C 1276 1132.289, 1269.013 1125.173, 1264.250 1121.860 C 1261.912 1120.234, 1260 1118.535, 1260 1118.084 C 1260 1117.632, 1261.853 1117.015, 1264.118 1116.711 C 1269.764 1115.954, 1279.715 1110.883, 1285.435 1105.849 C 1294.470 1097.895, 1298 1089.457, 1298 1075.808 C 1298 1067.203, 1297.851 1066.642, 1292.266 1054.236 L 1286.533 1041.500 1286.181 1029.696 C 1285.873 1019.333, 1286.087 1017.347, 1287.934 1013.418 C 1290.417 1008.136, 1293.995 1004.233, 1299.500 1000.803 C 1306.121 996.678, 1310.521 995.548, 1343.500 989.510 C 1363.414 985.863, 1365.809 985.159, 1377.230 979.592 C 1385.695 975.466, 1393.362 968.164, 1396.391 961.342 C 1397.329 959.229, 1398.532 956.708, 1399.063 955.740 C 1399.595 954.772, 1400.052 949.087, 1400.079 943.107 C 1400.123 933.157, 1399.844 931.483, 1396.791 923.368 C 1394.717 917.857, 1389.488 908.152, 1382.977 897.729 C 1377.215 888.506, 1370.749 878.156, 1368.608 874.729 C 1366.468 871.303, 1364.218 867.598, 1363.608 866.497 C 1361.766 863.167, 1349.349 843.234, 1341.496 831 C 1337.436 824.675, 1333.212 817.846, 1332.111 815.823 C 1328.466 809.131, 1327.506 807.505, 1326.901 807 C 1326.572 806.725, 1325.065 804.250, 1323.552 801.500 C 1322.039 798.750, 1320.171 795.790, 1319.401 794.921 C 1318.630 794.053, 1318 793.036, 1318 792.660 C 1318 792.285, 1315.669 788.271, 1312.819 783.739 C 1304.974 771.263, 1298 759.888, 1298 759.566 C 1298 759.407, 1294.414 753.478, 1290.031 746.389 C 1267.540 710.016, 1266.183 707.282, 1265.394 696.776 C 1264.875 689.849, 1265.116 687.534, 1266.874 682.571 C 1269.306 675.706, 1269.007 674.093, 1266.335 679.669 M 1078.465 1070.952 C 1077.346 1071.405, 1075.878 1072.442, 1075.203 1073.255 C 1073.659 1075.116, 1074.683 1075.984, 1081.311 1078.434 C 1087.498 1080.721, 1093.667 1085.451, 1097.412 1090.779 C 1099.934 1094.367, 1100.374 1095.926, 1100.368 1101.247 C 1100.356 1111.293, 1095.653 1117.012, 1081.659 1123.993 C 1075.293 1127.169, 1068.364 1133.350, 1066.100 1137.872 C 1063.780 1142.506, 1062.694 1147, 1063.893 1147 C 1064.405 1147, 1065.124 1145.226, 1065.490 1143.058 C 1065.857 1140.889, 1066.796 1138.584, 1067.578 1137.935 C 1068.360 1137.286, 1069 1136.340, 1069 1135.832 C 1069 1133.515, 1079.675 1125.622, 1084.419 1124.431 C 1085.839 1124.075, 1087 1123.382, 1087 1122.892 C 1087 1122.401, 1087.563 1122, 1088.250 1122 C 1088.938 1122, 1091.331 1120.313, 1093.568 1118.250 C 1104.146 1108.497, 1105.058 1097.028, 1096.069 1086.815 C 1092.191 1082.410, 1081.356 1076, 1077.786 1076 C 1075.197 1076, 1075.831 1072.648, 1078.511 1072.164 C 1079.605 1071.967, 1080.928 1071.400, 1081.450 1070.903 C 1082.624 1069.787, 1081.285 1069.809, 1078.465 1070.952 M 1064.107 1150.824 C 1064.048 1152.652, 1065.072 1157.377, 1066.382 1161.324 C 1072.127 1178.628, 1072.413 1180.127, 1072.340 1192.500 C 1072.285 1201.813, 1071.807 1205.888, 1070.205 1210.700 C 1068.097 1217.034, 1065.050 1224.103, 1064.043 1225 C 1063.734 1225.275, 1062.585 1227.274, 1061.490 1229.442 C 1058.839 1234.693, 1047.946 1245.696, 1040.500 1250.644 C 1032.494 1255.964, 1026.212 1258.772, 1017.083 1261.108 C 1012.912 1262.175, 1008.375 1263.359, 1007 1263.737 C 1005.625 1264.116, 991.470 1264.569, 975.545 1264.743 C 950.517 1265.017, 946.347 1265.281, 944.795 1266.685 C 943.107 1268.213, 943 1271.827, 943 1327.455 C 943 1365.464, 943.357 1386.957, 943.998 1387.598 C 944.662 1388.262, 947.591 1387.337, 952.748 1384.835 C 957.012 1382.767, 961.261 1381.058, 962.191 1381.037 C 963.121 1381.017, 964.160 1380.550, 964.500 1380 C 964.840 1379.450, 966.190 1379, 967.500 1379 C 968.810 1379, 970.160 1378.550, 970.500 1378 C 970.840 1377.450, 970.700 1377, 970.189 1377 C 968.234 1377, 957.240 1380.901, 951.500 1383.631 C 948.200 1385.201, 945.163 1386.638, 944.750 1386.826 C 944.337 1387.013, 944 1360.649, 944 1328.238 C 944 1272.812, 944.107 1269.213, 945.796 1267.685 C 947.347 1266.281, 951.613 1266.007, 977.046 1265.679 C 1012.021 1265.226, 1017.319 1264.415, 1032 1257.259 C 1041.009 1252.867, 1045.699 1249.462, 1053 1242.010 C 1059.309 1235.570, 1061.719 1232.533, 1063.324 1229 C 1063.948 1227.625, 1064.717 1226.275, 1065.032 1226 C 1065.347 1225.725, 1066.390 1223.700, 1067.351 1221.500 C 1068.311 1219.300, 1069.525 1216.719, 1070.048 1215.764 C 1070.572 1214.809, 1071 1213.211, 1071 1212.214 C 1071 1211.216, 1071.563 1209.838, 1072.250 1209.150 C 1073.140 1208.260, 1073.500 1203.527, 1073.500 1192.700 C 1073.500 1178.736, 1073.272 1176.809, 1070.697 1169 C 1069.155 1164.325, 1067.487 1159.600, 1066.991 1158.500 C 1066.495 1157.400, 1065.667 1154.475, 1065.151 1152 C 1064.288 1147.852, 1064.206 1147.760, 1064.107 1150.824 M 1262.435 1308.750 C 1261.063 1316.606, 1254.243 1334.082, 1250.825 1338.500 C 1245.688 1345.141, 1239.440 1352.268, 1235.887 1355.540 C 1230.164 1360.811, 1220.038 1368, 1218.337 1368 C 1217.602 1368, 1217 1368.340, 1217 1368.756 C 1217 1370.129, 1203.499 1375.504, 1193 1378.310 C 1189.975 1379.119, 1185.475 1380.335, 1183 1381.014 C 1180.249 1381.767, 1168.683 1382.427, 1153.239 1382.712 C 1132.725 1383.089, 1126.505 1382.878, 1120.139 1381.588 C 1115.828 1380.715, 1110.214 1380, 1107.665 1380 C 1105.115 1380, 1101.110 1379.576, 1098.764 1379.057 C 1093.064 1377.796, 1081 1375.872, 1073 1374.949 C 1027.177 1369.658, 1016.078 1369.226, 996.500 1371.975 C 974.138 1375.114, 974.036 1375.133, 973.369 1376.213 C 972.982 1376.837, 973.831 1376.999, 975.625 1376.644 C 995.754 1372.651, 1005.825 1371.764, 1024.444 1372.344 C 1046.081 1373.017, 1053.881 1373.816, 1090 1379.059 C 1093.575 1379.578, 1099.909 1380.414, 1104.076 1380.916 C 1108.243 1381.418, 1113.643 1382.394, 1116.076 1383.083 C 1122.406 1384.877, 1172.394 1384.960, 1180.500 1383.190 C 1187.185 1381.730, 1199.423 1378.304, 1202.500 1377.031 C 1226.760 1366.994, 1240.218 1356.532, 1251.421 1339 C 1256.244 1331.452, 1256.394 1331.147, 1261.820 1317.790 C 1263.123 1314.581, 1264.512 1305, 1263.674 1305 C 1263.353 1305, 1262.796 1306.688, 1262.435 1308.750" stroke="none" fill="#7b7b7b" fill-rule="evenodd"/><path d="M 839 143 C 838.175 143.533, 836.263 143.976, 834.750 143.985 C 833.237 143.993, 832 144.348, 832 144.773 C 832 145.198, 830.439 146.386, 828.530 147.414 C 820.749 151.604, 814.168 161.364, 811.443 172.754 C 810.284 177.599, 810.065 282.460, 810.050 841.274 C 810.037 1314.013, 810.343 1505.499, 811.116 1509.107 C 811.713 1511.889, 812.312 1514.691, 812.447 1515.333 C 812.582 1515.975, 813.212 1517.767, 813.846 1519.315 C 814.481 1520.863, 815 1522.345, 815 1522.607 C 815 1523.492, 817.471 1526.347, 823.155 1532.031 C 831.423 1540.298, 837.325 1542.288, 852.160 1541.814 C 861.697 1541.508, 864.292 1541.062, 868.479 1539.007 C 877.584 1534.540, 889 1520.994, 889 1514.658 C 889 1513.811, 889.450 1512.840, 890 1512.500 C 891.388 1511.642, 891.388 172.358, 890 171.500 C 889.450 171.160, 889 169.858, 889 168.607 C 889 167.355, 887.170 163.669, 884.934 160.416 C 875.722 147.012, 866.254 141.990, 850.239 142.015 C 844.883 142.024, 839.825 142.467, 839 143 M 704 222.683 C 689.500 227.530, 681.224 236.080, 677.075 250.500 C 675.734 255.162, 676.023 1427.354, 677.367 1432.500 C 678.242 1435.850, 679.778 1439.735, 681.122 1442 C 681.612 1442.825, 682.326 1444.175, 682.709 1444.999 C 685.196 1450.354, 698.562 1460, 703.495 1460 C 704.808 1460, 706.160 1460.450, 706.500 1461 C 707.331 1462.345, 721.460 1462.276, 725.929 1460.905 C 740.996 1456.285, 751.237 1446.430, 755.235 1432.706 C 756.770 1427.434, 757.623 255.759, 756.094 252.500 C 755.578 251.400, 754.885 249.255, 754.554 247.733 C 753.110 241.084, 744.135 230.289, 736.477 225.987 C 728.980 221.776, 711.908 220.040, 704 222.683 M 948.007 227.768 L 944.514 229.512 944.507 274.745 L 944.500 319.978 947.206 322.489 C 948.695 323.870, 950.177 325, 950.500 325 C 950.823 325, 952.301 326.125, 953.783 327.500 C 955.266 328.875, 956.841 330, 957.282 330 C 957.723 330, 958.628 330.447, 959.292 330.993 C 960.461 331.954, 964.616 335.261, 972.491 341.500 C 974.574 343.150, 976.700 344.662, 977.216 344.859 C 977.732 345.056, 979.406 346.406, 980.936 347.859 C 982.466 349.312, 985.394 351.909, 987.444 353.632 C 992.637 357.995, 1005.521 370.619, 1011.500 377.200 C 1015.887 382.030, 1018.202 384.704, 1026.645 394.694 C 1030.653 399.437, 1033.803 403.688, 1041.227 414.376 C 1045.477 420.494, 1049.415 426.044, 1049.977 426.708 C 1050.540 427.372, 1051 428.230, 1051 428.613 C 1051 428.997, 1052.125 430.786, 1053.500 432.589 C 1054.875 434.392, 1056 436.165, 1056 436.529 C 1056 436.893, 1056.855 438.392, 1057.900 439.860 C 1060.778 443.901, 1071 463.977, 1071 465.587 C 1071 466.364, 1071.450 467, 1072 467 C 1072.550 467, 1073 467.518, 1073 468.150 C 1073 468.783, 1074.070 471.596, 1075.377 474.400 C 1076.685 477.205, 1078.520 481.750, 1079.455 484.500 C 1081.132 489.430, 1081.563 490.577, 1083.970 496.500 C 1085.498 500.259, 1087.290 505.776, 1089.494 513.500 C 1090.435 516.800, 1091.571 520.625, 1092.019 522 C 1092.466 523.375, 1093.569 528.100, 1094.470 532.500 C 1095.371 536.900, 1096.512 541.850, 1097.006 543.500 C 1097.499 545.150, 1099.128 553.250, 1100.626 561.500 C 1103.134 575.313, 1103.356 578.637, 1103.425 603.500 C 1103.474 621.187, 1103.101 631.880, 1102.343 634.500 C 1101.707 636.700, 1100.431 641.875, 1099.507 646 C 1098.583 650.125, 1097.447 654.400, 1096.983 655.500 C 1095.928 658, 1094.806 661.846, 1091.438 674.500 C 1088.227 686.564, 1087.186 703.746, 1088.985 715 C 1089.644 719.125, 1090.420 724.075, 1090.710 726 C 1091 727.925, 1091.575 729.950, 1091.988 730.500 C 1092.401 731.050, 1093.054 733.243, 1093.438 735.373 C 1093.822 737.503, 1094.518 739.978, 1094.984 740.873 C 1095.450 741.768, 1096.574 744.300, 1097.482 746.500 C 1100.202 753.092, 1110.699 773.699, 1112 775 C 1113.010 776.010, 1115.075 779.549, 1115.646 781.250 C 1115.969 782.212, 1116.631 783, 1117.117 783 C 1117.602 783, 1118 783.510, 1118 784.134 C 1118 785.129, 1130.576 805.700, 1131.979 807 C 1132.276 807.275, 1133.405 809.188, 1134.487 811.250 C 1135.569 813.313, 1136.750 815, 1137.111 815 C 1137.472 815, 1138.051 815.788, 1138.399 816.750 C 1139.097 818.680, 1139.336 819.089, 1146.449 830.536 C 1149.171 834.916, 1151.759 838.650, 1152.199 838.833 C 1152.640 839.017, 1153 839.578, 1153 840.080 C 1153 840.582, 1155.250 844.146, 1158 848 C 1160.750 851.854, 1163 855.242, 1163 855.528 C 1163 856.444, 1171.404 869.487, 1172.217 869.833 C 1172.648 870.017, 1173 870.590, 1173 871.108 C 1173 871.625, 1174.800 874.899, 1177 878.383 C 1179.200 881.866, 1181 885.192, 1181 885.775 C 1181 886.357, 1181.361 886.983, 1181.801 887.167 C 1182.242 887.350, 1184.355 890.875, 1186.497 895 C 1190.346 902.414, 1190.392 902.632, 1190.445 914 C 1190.496 924.652, 1190.292 925.924, 1187.677 931.250 C 1184.073 938.588, 1176.395 947.002, 1170.832 949.709 C 1161.639 954.182, 1156.880 954.999, 1139.812 955.032 C 1127.055 955.057, 1123.077 955.384, 1121.559 956.532 C 1120.491 957.339, 1118.804 958, 1117.809 958 C 1116.814 958, 1116 958.450, 1116 959 C 1116 959.550, 1115.546 960, 1114.991 960 C 1113.398 960, 1108.106 965.082, 1104.578 970 C 1099.113 977.617, 1097.718 982.812, 1098.178 993.830 C 1098.554 1002.848, 1098.845 1003.972, 1102.482 1010.500 C 1104.627 1014.350, 1106.645 1017.725, 1106.965 1018 C 1107.286 1018.275, 1108.775 1020.904, 1110.274 1023.842 C 1116.014 1035.092, 1112.915 1048.815, 1102.294 1059.177 C 1097.771 1063.589, 1087.091 1070, 1084.264 1070 C 1083.554 1070, 1082.191 1070.417, 1081.236 1070.927 C 1080.281 1071.437, 1078.713 1072.098, 1077.750 1072.396 C 1075.416 1073.118, 1075.503 1076, 1077.860 1076 C 1081.366 1076, 1092.227 1082.451, 1096.069 1086.815 C 1105.058 1097.028, 1104.146 1108.497, 1093.568 1118.250 C 1091.331 1120.313, 1088.938 1122, 1088.250 1122 C 1087.563 1122, 1087 1122.401, 1087 1122.892 C 1087 1123.382, 1085.839 1124.075, 1084.419 1124.431 C 1079.769 1125.598, 1069 1133.507, 1069 1135.755 C 1069 1136.220, 1068.438 1137.158, 1067.750 1137.840 C 1064.465 1141.098, 1064.075 1151.904, 1067.005 1158.500 C 1067.494 1159.600, 1069.155 1164.325, 1070.697 1169 C 1073.272 1176.809, 1073.500 1178.736, 1073.500 1192.700 C 1073.500 1203.527, 1073.140 1208.260, 1072.250 1209.150 C 1071.563 1209.838, 1071 1211.216, 1071 1212.214 C 1071 1213.211, 1070.572 1214.809, 1070.048 1215.764 C 1069.525 1216.719, 1068.311 1219.300, 1067.351 1221.500 C 1066.390 1223.700, 1065.347 1225.725, 1065.032 1226 C 1064.717 1226.275, 1063.948 1227.625, 1063.324 1229 C 1061.719 1232.533, 1059.309 1235.570, 1053 1242.010 C 1045.699 1249.462, 1041.009 1252.867, 1032 1257.259 C 1017.319 1264.415, 1012.021 1265.226, 977.046 1265.679 C 951.613 1266.007, 947.347 1266.281, 945.796 1267.685 C 944.107 1269.213, 944 1272.812, 944 1328.238 C 944 1360.649, 944.337 1387.013, 944.750 1386.826 C 945.163 1386.638, 948.200 1385.201, 951.500 1383.631 C 958.257 1380.416, 968.341 1377, 971.071 1377 C 972.067 1377, 973.131 1376.598, 973.435 1376.106 C 974.033 1375.138, 974.264 1375.096, 996.500 1371.975 C 1016.078 1369.226, 1027.177 1369.658, 1073 1374.949 C 1081 1375.872, 1093.064 1377.796, 1098.764 1379.057 C 1101.110 1379.576, 1105.115 1380, 1107.665 1380 C 1110.214 1380, 1115.828 1380.715, 1120.139 1381.588 C 1126.505 1382.878, 1132.725 1383.089, 1153.239 1382.712 C 1168.683 1382.427, 1180.249 1381.767, 1183 1381.014 C 1185.475 1380.335, 1189.975 1379.119, 1193 1378.310 C 1200.809 1376.223, 1203.127 1375.394, 1213.750 1370.890 C 1215.537 1370.132, 1217 1369.172, 1217 1368.756 C 1217 1368.340, 1217.602 1368, 1218.337 1368 C 1220.038 1368, 1230.164 1360.811, 1235.887 1355.540 C 1239.450 1352.259, 1245.233 1345.665, 1250.840 1338.491 C 1252.665 1336.156, 1258.859 1322.081, 1260.298 1317 C 1263.921 1304.208, 1264.234 1301.950, 1263.656 1292.783 C 1262.990 1282.237, 1261.982 1276.115, 1259.493 1267.500 C 1258.539 1264.200, 1257.521 1260.375, 1257.231 1259 C 1256.940 1257.625, 1256.430 1256.275, 1256.097 1256 C 1255.764 1255.725, 1254.654 1252.800, 1253.630 1249.500 C 1252.606 1246.200, 1251.425 1242.600, 1251.005 1241.500 C 1247.226 1231.583, 1245.946 1209.570, 1248.621 1200.500 C 1250.726 1193.360, 1254 1187.782, 1258.905 1182.979 C 1262.433 1179.523, 1270.278 1174, 1271.658 1174 C 1273.145 1174, 1279.060 1166.580, 1279.546 1164.106 C 1279.827 1162.672, 1280.483 1160.189, 1281.003 1158.586 C 1282.866 1152.853, 1278.152 1136.834, 1273.143 1131.873 C 1272.239 1130.978, 1270.786 1129.403, 1269.912 1128.373 C 1268.041 1126.165, 1264.125 1122.948, 1261.422 1121.398 C 1260.365 1120.792, 1259.356 1119.329, 1259.180 1118.148 C 1258.914 1116.356, 1259.359 1116, 1261.871 1116 C 1263.527 1116, 1265.160 1115.550, 1265.500 1115 C 1265.840 1114.450, 1266.794 1114, 1267.621 1114 C 1270.605 1114, 1279.612 1108.968, 1284.832 1104.384 C 1295.159 1095.315, 1299.681 1078.664, 1295.410 1065.428 C 1294.535 1062.718, 1292.328 1057.350, 1290.506 1053.500 C 1284.835 1041.523, 1284.500 1040.124, 1284.500 1028.430 C 1284.500 1018.698, 1284.791 1016.795, 1286.909 1012.678 C 1291.647 1003.465, 1301.503 996.247, 1312.500 993.935 C 1323.301 991.665, 1325.763 991.204, 1333 990.099 C 1337.125 989.469, 1342.075 988.534, 1344 988.021 C 1345.925 987.507, 1351.530 986.339, 1356.455 985.424 C 1361.381 984.509, 1366.106 983.402, 1366.955 982.964 C 1370.458 981.159, 1375.874 979, 1376.901 979 C 1377.506 979, 1378 978.660, 1378 978.244 C 1378 977.828, 1379.237 976.922, 1380.750 976.230 C 1386.973 973.383, 1393.731 965.104, 1397.249 956.018 C 1399.494 950.219, 1399.579 936.415, 1397.411 929.500 C 1396.549 926.750, 1395.739 924.050, 1395.609 923.500 C 1394.868 920.344, 1389.762 911.019, 1382.392 899.357 C 1377.776 892.055, 1374 885.612, 1374 885.040 C 1374 884.468, 1373.602 884, 1373.117 884 C 1372.631 884, 1371.962 883.212, 1371.630 882.250 C 1370.935 880.234, 1366.001 871.745, 1365.092 871 C 1364.756 870.725, 1363.595 868.813, 1362.513 866.750 C 1361.431 864.688, 1360.198 863, 1359.773 863 C 1359.348 863, 1359 862.553, 1359 862.008 C 1359 861.462, 1354.838 854.472, 1349.750 846.475 C 1344.662 838.478, 1340.050 831.153, 1339.500 830.197 C 1338.950 829.241, 1337.487 827.048, 1336.250 825.325 C 1335.013 823.601, 1334 821.698, 1334 821.096 C 1334 820.493, 1333.651 820, 1333.224 820 C 1332.797 820, 1331.560 817.979, 1330.474 815.509 C 1329.388 813.040, 1328.215 811.015, 1327.867 811.009 C 1327.518 811.004, 1326.969 810.212, 1326.646 809.250 C 1326.069 807.532, 1323.994 803.985, 1322.990 803 C 1322.710 802.725, 1321.595 800.813, 1320.513 798.750 C 1319.431 796.688, 1318.198 795, 1317.773 795 C 1317.348 795, 1317 794.557, 1317 794.016 C 1317 793.475, 1312.611 785.938, 1307.246 777.266 C 1301.881 768.595, 1296.604 759.813, 1295.518 757.750 C 1294.433 755.688, 1293.198 754, 1292.773 754 C 1292.348 754, 1292 753.528, 1292 752.952 C 1292 752.053, 1288.818 746.510, 1284.244 739.442 C 1283.553 738.374, 1282.685 736.825, 1282.317 736 C 1281.948 735.175, 1281.373 734.275, 1281.040 734 C 1279.806 732.982, 1274 723.287, 1274 722.246 C 1274 721.652, 1273.639 721.017, 1273.199 720.833 C 1272.758 720.650, 1270.637 717.125, 1268.485 713 C 1264.602 705.556, 1264.572 705.414, 1264.554 694 C 1264.538 684.068, 1264.824 682.014, 1266.648 678.932 C 1267.810 676.970, 1269.097 673.835, 1269.508 671.965 C 1269.918 670.095, 1270.610 667.876, 1271.044 667.033 C 1271.478 666.190, 1272.561 662.800, 1273.450 659.500 C 1274.338 656.200, 1275.501 652.118, 1276.033 650.429 C 1276.565 648.740, 1277 646.227, 1277 644.846 C 1277 643.464, 1277.338 642, 1277.750 641.593 C 1278.827 640.530, 1280.807 624.026, 1282.044 605.808 C 1283.650 582.148, 1281.780 553.361, 1277.088 529.500 C 1276.547 526.750, 1275.603 521.800, 1274.989 518.500 C 1274.375 515.200, 1273.469 511.600, 1272.975 510.500 C 1272.481 509.400, 1271.341 505.800, 1270.442 502.500 C 1268.583 495.678, 1262.374 476.513, 1261.046 473.500 C 1258.444 467.595, 1254.480 458.799, 1252.033 453.500 C 1250.508 450.200, 1248.666 445.925, 1247.937 444 C 1247.209 442.075, 1246.363 440.275, 1246.057 440 C 1245.751 439.725, 1244.607 437.700, 1243.515 435.500 C 1242.423 433.300, 1240.124 429.250, 1238.404 426.500 C 1236.685 423.750, 1234.979 420.547, 1234.614 419.382 C 1234.248 418.217, 1233.060 416.460, 1231.974 415.477 C 1230.889 414.494, 1230 413.311, 1230 412.847 C 1230 412.383, 1226.734 407.390, 1222.742 401.752 C 1218.749 396.113, 1214.620 390.157, 1213.566 388.516 C 1212.511 386.876, 1210.602 384.405, 1209.324 383.027 C 1208.046 381.648, 1207 380.182, 1207 379.768 C 1207 379.354, 1206.127 377.999, 1205.061 376.758 C 1203.994 375.516, 1202.235 373.466, 1201.151 372.202 C 1200.068 370.938, 1197.678 368.021, 1195.841 365.719 C 1190.285 358.762, 1170.010 337.998, 1154.615 323.500 C 1150.930 320.030, 1138.504 309.584, 1135.582 307.500 C 1134.040 306.400, 1132.263 305.015, 1131.632 304.422 C 1131.002 303.829, 1125.539 299.800, 1119.493 295.470 C 1113.447 291.140, 1108.275 287.316, 1108 286.973 C 1107.725 286.630, 1105.925 285.483, 1104 284.425 C 1102.075 283.366, 1100.275 282.275, 1100 282 C 1099.258 281.258, 1095.717 279.084, 1094 278.317 C 1093.175 277.948, 1092.275 277.388, 1092 277.073 C 1091.232 276.193, 1087.625 274.221, 1073.500 266.961 C 1066.350 263.286, 1058.925 259.403, 1057 258.333 C 1055.075 257.262, 1051.925 255.779, 1050 255.037 C 1048.075 254.295, 1044.070 252.608, 1041.100 251.289 C 1038.130 249.970, 1034.418 248.634, 1032.850 248.320 C 1031.283 248.007, 1030 247.409, 1030 246.992 C 1030 246.575, 1028.987 245.904, 1027.750 245.501 C 1026.513 245.098, 1025.275 244.670, 1025 244.548 C 1024.725 244.427, 1023.600 243.988, 1022.500 243.573 C 1021.400 243.158, 1019.600 242.458, 1018.500 242.017 C 1017.400 241.576, 1012.450 239.991, 1007.500 238.495 C 1002.550 236.998, 997.375 235.308, 996 234.738 C 994.625 234.169, 991.700 233.358, 989.500 232.936 C 987.300 232.514, 982.684 231.461, 979.243 230.595 C 975.802 229.729, 969.277 228.562, 964.743 228.002 C 960.209 227.442, 955.375 226.768, 954 226.504 C 952.625 226.240, 949.928 226.808, 948.007 227.768 M 571 275.658 C 569.625 275.939, 568.072 276.581, 567.550 277.085 C 567.028 277.588, 565.971 278, 565.201 278 C 562.569 278, 556.502 281.421, 552.439 285.197 C 548.222 289.116, 541 301.442, 541 304.721 C 541 305.754, 540.556 307.044, 540.013 307.587 C 539.413 308.187, 538.924 322.070, 538.763 343.023 C 538.507 376.593, 538.449 377.482, 536.500 377.805 C 535.400 377.987, 533.082 378.780, 531.349 379.568 C 529.616 380.356, 527.940 381, 527.624 381 C 527.021 381, 517.721 385.169, 507.357 390.086 C 503.978 391.689, 500.491 393, 499.607 393 C 498.723 393, 498 393.353, 498 393.784 C 498 394.216, 495.076 395.903, 491.501 397.534 C 487.927 399.165, 485.002 400.802, 485.001 401.171 C 485.001 401.539, 483.650 402.138, 482 402.500 C 480.350 402.862, 479 403.573, 479 404.079 C 479 404.586, 478.433 405, 477.740 405 C 477.047 405, 475.266 406.125, 473.783 407.500 C 472.301 408.875, 470.832 410, 470.519 410 C 469.699 410, 457.039 417.964, 453.500 420.706 C 451.850 421.984, 450.050 423.361, 449.499 423.765 C 442.488 428.913, 440.448 430.540, 440.167 431.209 C 439.983 431.644, 439.414 432, 438.903 432 C 436.350 432, 415.362 450.651, 396.524 469.660 C 379.715 486.621, 379.028 487.403, 363.547 507.174 C 360.822 510.653, 358.319 513.725, 357.983 514 C 356.831 514.944, 345.364 530.575, 343.467 533.787 C 342.423 535.554, 341.216 537, 340.784 537 C 340.353 537, 340 537.643, 340 538.429 C 340 539.214, 339.437 540.452, 338.748 541.179 C 337.047 542.975, 332 550.794, 332 551.634 C 332 552.007, 330.875 553.786, 329.500 555.589 C 328.125 557.392, 327 559.131, 327 559.453 C 327 559.776, 325.796 561.943, 324.324 564.270 C 322.852 566.596, 319.534 572.550, 316.950 577.500 C 314.366 582.450, 311.523 587.850, 310.632 589.500 C 309.741 591.150, 309.010 593.063, 309.006 593.750 C 309.003 594.438, 308.550 595, 308 595 C 307.450 595, 307 595.810, 307 596.800 C 307 597.790, 306.622 599.027, 306.160 599.550 C 305.698 600.072, 304.727 602.075, 304.002 604 C 302.423 608.194, 299.515 615.019, 296.973 620.500 C 295.952 622.700, 294.831 625.850, 294.481 627.500 C 293.864 630.410, 292.628 633.781, 290.952 637.127 C 290.504 638.022, 289.830 640.389, 289.455 642.388 C 289.080 644.387, 288.374 646.269, 287.887 646.570 C 287.399 646.871, 287 648.216, 287 649.559 C 287 650.902, 286.608 652, 286.129 652 C 285.650 652, 284.962 654.232, 284.600 656.959 C 284.238 659.686, 283.505 662.188, 282.971 662.518 C 282.437 662.848, 282 663.998, 282 665.073 C 282 666.148, 281.592 667.809, 281.094 668.764 C 280.595 669.719, 279.411 674.100, 278.463 678.500 C 277.514 682.900, 276.491 687.175, 276.190 688 C 275.667 689.428, 273.754 699.903, 272.445 708.500 C 272.109 710.700, 271.564 713.175, 271.232 714 C 269.998 717.072, 266.635 743.556, 265.074 762.500 C 263.924 776.464, 263.910 832.621, 265.055 844.500 C 266.919 863.841, 268.548 876.017, 270.608 886 C 271.607 890.842, 272.881 897.576, 274.155 904.750 C 274.863 908.737, 275.793 912, 276.221 912 C 276.650 912, 277.026 913.237, 277.058 914.750 C 277.125 917.981, 280.316 930.649, 281.313 931.646 C 281.691 932.024, 282 933.389, 282 934.680 C 282 935.971, 282.420 937.809, 282.934 938.764 C 283.447 939.719, 285.285 945.225, 287.018 951 C 288.750 956.775, 290.526 962.400, 290.964 963.500 C 291.402 964.600, 292.551 967.525, 293.517 970 C 294.483 972.475, 296.112 976.408, 297.137 978.739 C 298.162 981.071, 299 983.177, 299 983.419 C 299 983.662, 300.350 986.777, 302 990.342 C 303.650 993.907, 305 997.313, 305 997.912 C 305 998.510, 305.344 999, 305.764 999 C 306.567 999, 310 1006.299, 310 1008.007 C 310 1008.553, 310.450 1009, 311 1009 C 311.550 1009, 312 1009.527, 312 1010.171 C 312 1011.317, 316.912 1021.598, 319.296 1025.442 C 325.591 1035.591, 327 1037.999, 327 1038.608 C 327 1038.995, 328.125 1040.786, 329.500 1042.589 C 330.875 1044.392, 332 1046.108, 332 1046.403 C 332 1047.013, 342.132 1062.232, 343.049 1063 C 343.377 1063.275, 343.944 1064.175, 344.309 1065 C 345.364 1067.387, 366.162 1096.433, 367.938 1098 C 368.250 1098.275, 371.203 1101.875, 374.502 1106 C 377.801 1110.125, 382.289 1115.525, 384.476 1118 C 388.990 1123.109, 413.286 1147.411, 420.048 1153.580 C 426.520 1159.485, 449.094 1177.086, 451.745 1178.293 C 452.985 1178.859, 454 1179.699, 454 1180.161 C 454 1180.622, 454.637 1181, 455.417 1181 C 456.196 1181, 456.983 1181.354, 457.167 1181.786 C 457.661 1182.951, 478.466 1196, 479.830 1196 C 480.473 1196, 481 1196.420, 481 1196.933 C 481 1197.446, 481.924 1198.158, 483.053 1198.517 C 484.182 1198.875, 487.825 1200.705, 491.149 1202.584 C 494.473 1204.463, 497.824 1206, 498.596 1206 C 499.368 1206, 500 1206.450, 500 1207 C 500 1207.550, 500.639 1208, 501.419 1208 C 502.199 1208, 504.112 1208.636, 505.669 1209.414 C 511.585 1212.370, 523.489 1217.550, 530 1220.002 C 531.925 1220.727, 533.928 1221.698, 534.450 1222.160 C 534.973 1222.622, 536.210 1223, 537.200 1223 C 538.914 1223, 539 1225.970, 539 1285.179 C 539 1328.919, 539.338 1348.417, 540.139 1350.929 C 543.681 1362.041, 545.937 1366.040, 552.162 1372.250 C 555.333 1375.412, 558.618 1378, 559.463 1378 C 560.308 1378, 561 1378.450, 561 1379 C 561 1379.550, 561.810 1380, 562.800 1380 C 563.790 1380, 565.148 1380.548, 565.817 1381.217 C 567.399 1382.799, 589.740 1382.940, 593.095 1381.389 C 600.826 1377.816, 602.687 1376.890, 604.421 1375.756 C 608.547 1373.057, 612.787 1367.919, 615.494 1362.338 C 617.050 1359.127, 618.814 1355.600, 619.412 1354.500 C 620.605 1352.308, 621.664 1170.351, 620.519 1164.252 C 619.702 1159.897, 615.119 1157.011, 609 1156.998 C 604.705 1156.989, 597.794 1155.998, 588 1153.988 C 579.543 1152.253, 571.501 1150.366, 570 1149.767 C 569.175 1149.437, 566.250 1148.406, 563.500 1147.476 C 560.750 1146.546, 556.700 1144.947, 554.500 1143.924 C 552.300 1142.900, 549.258 1141.774, 547.741 1141.421 C 546.223 1141.067, 544.734 1140.378, 544.432 1139.889 C 544.129 1139.400, 543.009 1139, 541.941 1139 C 540.873 1139, 540 1138.550, 540 1138 C 540 1137.450, 539.553 1137, 539.007 1137 C 537.299 1137, 530 1133.567, 530 1132.764 C 530 1132.344, 529.438 1132.007, 528.750 1132.016 C 527.556 1132.032, 511.770 1124.369, 509.559 1122.701 C 506.655 1120.509, 488.527 1109, 487.979 1109 C 487.633 1109, 486.292 1107.875, 485 1106.500 C 483.708 1105.125, 482.055 1104, 481.326 1104 C 480.597 1104, 480 1103.647, 480 1103.216 C 480 1102.784, 478.738 1101.686, 477.195 1100.774 C 475.652 1099.863, 473.290 1098.066, 471.945 1096.782 C 470.600 1095.497, 467.839 1093.218, 465.809 1091.717 C 456.326 1084.706, 426.662 1053.431, 417.230 1040.499 C 416.829 1039.949, 415.262 1037.841, 413.750 1035.816 C 412.238 1033.791, 411 1031.859, 411 1031.525 C 411 1031.190, 410.546 1030.372, 409.990 1029.708 C 407.149 1026.309, 396 1009.764, 396 1008.946 C 396 1008.426, 395.550 1008, 395 1008 C 394.450 1008, 394 1007.558, 394 1007.018 C 394 1006.477, 392.275 1003.215, 390.168 999.768 C 387.092 994.738, 379.787 981.448, 374.905 972 C 373.150 968.603, 367 954.882, 367 954.363 C 367 954.055, 366.356 952.384, 365.570 950.651 C 363.858 946.878, 359.869 936.425, 357.499 929.500 C 356.558 926.750, 355.424 923.600, 354.978 922.500 C 354.532 921.400, 353.682 918.475, 353.090 916 C 352.498 913.525, 350.829 907.225, 349.381 902 C 342.932 878.732, 339.671 858.360, 337.055 825 C 334.586 793.521, 337.554 750.099, 344.028 723 C 344.619 720.525, 345.537 716.132, 346.067 713.239 C 346.597 710.345, 347.743 705.395, 348.612 702.239 C 349.482 699.082, 350.524 694.925, 350.928 693 C 351.814 688.785, 353.915 682.153, 355.123 679.764 C 355.605 678.809, 356 677.294, 356 676.398 C 356 674.645, 359.171 664.826, 360.004 664 C 360.282 663.725, 361.398 660.800, 362.484 657.500 C 363.571 654.200, 365.482 649.365, 366.730 646.755 C 367.979 644.145, 369 641.642, 369 641.192 C 369 640.742, 370.125 638.042, 371.500 635.192 C 372.875 632.342, 374 629.515, 374 628.909 C 374 628.304, 374.829 626.614, 375.842 625.154 C 376.855 623.694, 378.430 621.038, 379.342 619.250 C 383.605 610.894, 384.382 609.467, 384.922 609 C 385.240 608.725, 385.991 607.600, 386.591 606.500 C 393.678 593.511, 398.701 585.139, 400.091 584 C 400.427 583.725, 401.948 581.510, 403.471 579.078 C 404.995 576.647, 406.630 574.172, 407.104 573.578 C 407.578 572.985, 411.548 567.640, 415.926 561.699 C 427.601 545.857, 445.044 526.775, 458.547 515.075 C 460.721 513.191, 464.548 509.816, 467.052 507.575 C 478.528 497.302, 499.996 481, 502.047 481 C 502.571 481, 503 480.550, 503 480 C 503 479.450, 503.675 479, 504.500 479 C 505.325 479, 506 478.602, 506 478.117 C 506 477.631, 506.788 476.961, 507.750 476.628 C 508.712 476.296, 510.850 475.136, 512.500 474.052 C 514.150 472.967, 518.875 470.345, 523 468.224 C 527.125 466.104, 531.400 463.865, 532.500 463.248 C 534.300 462.239, 536.561 461.204, 549.151 455.619 C 551.159 454.729, 553.432 454, 554.201 454 C 554.971 454, 556.027 453.641, 556.550 453.202 C 557.072 452.763, 559.975 451.600, 563 450.617 C 566.025 449.634, 569.400 448.455, 570.500 447.996 C 571.600 447.537, 574.075 446.851, 576 446.472 C 577.925 446.092, 582.650 445.123, 586.500 444.319 C 590.350 443.514, 598.778 442.544, 605.228 442.164 C 614.485 441.619, 617.329 441.099, 618.728 439.700 C 620.388 438.040, 620.500 433.795, 620.500 372.617 C 620.500 324.527, 620.194 306.937, 619.339 305.903 C 618.701 305.131, 617.871 302.851, 617.494 300.837 C 617.118 298.822, 615.953 296.253, 614.905 295.128 C 613.857 294.004, 613 292.670, 613 292.165 C 613 290.318, 602.500 281.083, 598.557 279.462 C 596.326 278.545, 593.620 277.329, 592.544 276.760 C 590.403 275.628, 575.003 274.840, 571 275.658 M 570 518.718 C 560.340 521.866, 551.485 525.367, 551.167 526.164 C 550.983 526.624, 550.308 526.996, 549.667 526.992 C 548.157 526.982, 531.604 535.265, 531.167 536.250 C 530.983 536.663, 530.196 537, 529.417 537 C 528.638 537, 527.993 537.337, 527.985 537.750 C 527.977 538.163, 525.284 540.075, 522 542 C 518.716 543.925, 516.023 545.837, 516.015 546.250 C 516.007 546.663, 515.531 547, 514.958 547 C 514.385 547, 513.372 547.462, 512.708 548.028 C 512.044 548.593, 508.800 551.097, 505.500 553.593 C 502.200 556.089, 497.475 559.854, 495 561.961 C 492.525 564.067, 489.375 566.730, 488 567.877 C 486.625 569.024, 485.050 570.353, 484.500 570.829 C 483.721 571.504, 472.170 584.005, 465.500 591.393 C 463.304 593.824, 453.263 606.712, 451.003 610 C 449.679 611.925, 448.350 613.725, 448.048 614 C 446.998 614.958, 439 626.907, 439 627.518 C 439 627.856, 437.863 629.624, 436.474 631.445 C 433.478 635.374, 418.230 665.341, 415.584 672.500 C 414.568 675.250, 413.346 677.928, 412.869 678.450 C 412.391 678.972, 411.997 680.097, 411.994 680.950 C 411.990 681.803, 411.315 683.789, 410.494 685.364 C 409.672 686.940, 409 689.051, 409 690.055 C 409 691.060, 408.589 692.136, 408.087 692.446 C 407.585 692.757, 406.871 694.806, 406.500 697 C 406.129 699.194, 405.415 701.243, 404.913 701.554 C 404.411 701.864, 404 703.141, 404 704.392 C 404 705.643, 403.683 706.984, 403.296 707.371 C 401.826 708.841, 397.734 727.050, 395.851 740.500 C 394.773 748.200, 393.434 756.525, 392.875 759 C 392.316 761.475, 391.625 774.975, 391.339 789 C 390.856 812.618, 391.462 826.392, 393.866 846.500 C 396.556 869.004, 397.239 873.668, 398.075 875.236 C 398.584 876.191, 399 877.735, 399 878.665 C 399 879.596, 399.432 881.740, 399.961 883.429 C 400.489 885.118, 402.327 891.225, 404.044 897 C 405.762 902.775, 407.540 908.400, 407.995 909.500 C 408.450 910.600, 410.493 916, 412.535 921.500 C 414.578 927, 417.993 935.221, 420.125 939.769 C 422.256 944.317, 424 948.442, 424 948.936 C 424 949.430, 424.337 949.983, 424.750 950.167 C 425.163 950.350, 426.388 952.300, 427.474 954.500 C 428.559 956.700, 430.472 959.892, 431.724 961.594 C 432.976 963.296, 434 965.209, 434 965.844 C 434 966.480, 434.337 967.007, 434.750 967.015 C 435.163 967.023, 437.075 969.716, 439 973 C 440.925 976.284, 442.837 978.977, 443.250 978.985 C 443.663 978.993, 444 979.638, 444 980.417 C 444 981.196, 444.337 981.983, 444.750 982.167 C 445.163 982.350, 447.504 985.425, 449.953 989 C 455.031 996.411, 454.315 995.463, 461.238 1003.951 C 467.884 1012.099, 488.908 1033.335, 495.490 1038.548 C 498.234 1040.722, 501.356 1043.287, 502.428 1044.250 C 503.500 1045.213, 504.710 1046, 505.117 1046 C 505.524 1046, 506.456 1046.598, 507.187 1047.330 C 507.918 1048.061, 513.013 1051.445, 518.508 1054.848 C 524.004 1058.252, 529.175 1061.463, 530 1061.982 C 536.182 1065.876, 558.305 1075.922, 562.400 1076.696 C 564.105 1077.018, 565.950 1077.615, 566.500 1078.022 C 569.095 1079.945, 592.024 1081.739, 595.371 1080.281 C 605.002 1076.089, 609.595 1073.142, 613.555 1068.616 C 616 1065.821, 618 1062.964, 618 1062.267 C 618 1061.570, 618.357 1061, 618.793 1061 C 620.327 1061, 622 1051.878, 622 1043.515 C 622 1035.159, 620.571 1030.371, 615.730 1022.500 C 614.601 1020.665, 608.256 1014.247, 604.606 1011.250 C 603.351 1010.219, 589.609 1003.781, 584 1001.597 C 582.489 1001.008, 580.733 999.964, 575.850 996.750 C 574.388 995.788, 572.473 995, 571.596 995 C 570.718 995, 570 994.657, 570 994.237 C 570 993.418, 569.194 992.947, 560.708 988.807 C 557.672 987.325, 554.872 985.601, 554.485 984.975 C 554.098 984.350, 552.507 983.063, 550.949 982.115 C 542.494 976.973, 520.057 954.779, 515.567 947.116 C 515.054 946.240, 513.816 944.646, 512.817 943.573 C 511.818 942.501, 511 941.290, 511 940.883 C 511 940.476, 510.438 939.548, 509.750 938.821 C 507.120 936.042, 503 930.087, 503 929.067 C 503 928.480, 502.652 928, 502.227 928 C 501.802 928, 500.569 926.313, 499.487 924.250 C 498.405 922.188, 497.290 920.275, 497.010 920 C 495.182 918.206, 485.876 898.630, 482.035 888.500 C 481.618 887.400, 480.540 884.797, 479.639 882.716 C 478.737 880.635, 478 878.137, 478 877.166 C 478 876.195, 477.633 874.973, 477.185 874.450 C 476.737 873.928, 475.586 870.125, 474.628 866 C 473.669 861.875, 472.486 856.925, 471.997 855 C 467.443 837.037, 464.704 796.647, 466.910 780 C 471.603 744.592, 476.055 725.897, 484.361 706.716 C 485.263 704.635, 486 702.272, 486 701.466 C 486 700.660, 486.450 700, 487 700 C 487.550 700, 488 699.426, 488 698.724 C 488 698.023, 490.185 693.185, 492.855 687.974 C 499.835 674.353, 501.406 671.542, 502.250 671.167 C 502.663 670.983, 503 670.233, 503 669.500 C 503 668.767, 503.346 668.017, 503.768 667.833 C 504.191 667.650, 506.088 665.025, 507.985 662 C 509.882 658.975, 511.684 656.275, 511.989 656 C 512.294 655.725, 514.955 652.350, 517.902 648.500 C 525.612 638.427, 544.183 620.174, 551.983 615 C 553.227 614.175, 554.771 613, 555.413 612.388 C 557.367 610.528, 572.909 601, 573.989 601 C 574.545 601, 575 600.662, 575 600.248 C 575 599.582, 579.779 597.168, 591 592.165 C 592.925 591.306, 594.725 590.356, 595 590.052 C 595.275 589.748, 598.041 588.232, 601.146 586.682 C 604.251 585.132, 609.016 581.532, 611.733 578.682 C 616.264 573.930, 617.549 571.821, 620.859 563.703 C 622.264 560.258, 622.375 544.350, 621 543.500 C 620.450 543.160, 620 542.093, 620 541.129 C 620 534.747, 610.998 524.441, 601.578 520.037 C 595.578 517.231, 594.300 517.010, 584.792 517.126 C 578.810 517.199, 572.616 517.866, 570 518.718 M 593.500 671.611 C 591.455 672.114, 590.474 672.500, 583.500 675.540 C 577.089 678.334, 565.955 686.440, 559.920 692.706 C 554.764 698.060, 546 709.224, 546 710.438 C 546 710.726, 544.425 713.423, 542.500 716.433 C 540.575 719.442, 538.998 722.263, 538.996 722.702 C 538.994 723.141, 537.846 725.750, 536.446 728.500 C 533.380 734.523, 529.380 745.998, 528.430 751.500 C 528.050 753.700, 527.399 755.950, 526.982 756.500 C 526.566 757.050, 525.964 759.300, 525.645 761.500 C 525.326 763.700, 524.296 770.675, 523.357 777 C 522.418 783.325, 521.653 793.675, 521.657 800 C 521.669 819.733, 526.510 848.389, 532.046 861.500 C 539.262 878.590, 543.291 886.284, 549.756 895.324 C 556.575 904.859, 565.020 913.684, 571.103 917.629 C 573.521 919.198, 575.725 920.752, 576 921.082 C 576.275 921.413, 578.745 922.532, 581.489 923.569 C 588.370 926.169, 602.633 926.169, 609.511 923.568 C 614.692 921.609, 618.561 918.284, 619.969 914.583 C 620.419 913.399, 620.944 860.222, 621.137 796.411 C 621.466 687.190, 621.384 680.235, 619.734 677.717 C 616.933 673.442, 612.412 671.679, 603.500 671.383 C 599.100 671.237, 594.600 671.340, 593.500 671.611 M 975 673.639 C 973.075 673.889, 970.082 674.748, 968.349 675.547 C 966.616 676.346, 964.904 677, 964.544 677 C 964.184 677, 961.102 678.889, 957.695 681.198 C 951.091 685.673, 944 692.624, 944 694.622 C 944 695.288, 943.638 695.983, 943.196 696.167 C 942.753 696.350, 941.066 699.642, 939.446 703.482 C 936.693 710.006, 936.500 711.317, 936.500 723.482 C 936.500 735.638, 936.682 736.876, 939.250 742.186 C 940.763 745.313, 942 748.351, 942 748.936 C 942 749.521, 942.450 750, 943 750 C 943.550 750, 944 750.640, 944 751.421 C 944 752.203, 946.867 755.691, 950.370 759.171 C 959.180 767.924, 960.611 768.852, 969 771.251 C 985.872 776.076, 984.916 776.062, 1000.500 771.730 C 1014.718 767.777, 1027.990 754.866, 1034.143 739 C 1035.997 734.219, 1035.990 711.753, 1034.133 707 C 1029.981 696.372, 1029.189 695.176, 1020.904 687.013 C 1014.118 680.326, 1013.549 679.898, 1008.500 677.669 C 1006.300 676.698, 1003.655 675.435, 1002.622 674.863 C 1000.620 673.754, 980.850 672.878, 975 673.639" stroke="none" fill="#fafafa" fill-rule="evenodd"/></svg>